<?xml version="1.0" encoding="utf-8"?>
<!-- Generator: Adobe Illustrator 25.4.1, SVG Export Plug-In . SVG Version: 6.00 Build 0)  -->
<svg version="1.1" id="Layer_1" xmlns="http://www.w3.org/2000/svg" xmlns:xlink="http://www.w3.org/1999/xlink" x="0px" y="0px"
	 viewBox="0 0 100 100" style="enable-background:new 0 0 100 100;" xml:space="preserve">
<style type="text/css">
	.st0{clip-path:url(#SVGID_00000105385060652290745230000002630820814077299599_);}
	.st1{fill:#FF9922;}
	.st2{fill:#FFFFFF;}
	.st3{fill:#008800;}
	.st4{fill:#00008B;}
	.st5{fill:#3A3A3A;}
</style>
<g>
	<defs>
		<circle id="SVGID_1_" cx="50" cy="50" r="44"/>
	</defs>
	<clipPath id="SVGID_00000155855429683797120280000012040162831332076191_">
		<use xlink:href="#SVGID_1_"  style="overflow:visible;"/>
	</clipPath>
	<g style="clip-path:url(#SVGID_00000155855429683797120280000012040162831332076191_);">
		<g>
			<rect x="-38.3" y="3.9" class="st1" width="174.7" height="30.2"/>
			<rect x="-38.3" y="34" class="st2" width="174.7" height="31.9"/>
			<rect x="-38.3" y="65.9" class="st3" width="174.7" height="30.2"/>
		</g>
		<g>
			<path class="st4" d="M49.1,37.6c-6.8,0-12.3,5.5-12.3,12.4c0,6.8,5.5,12.4,12.3,12.4c6.8,0,12.3-5.5,12.3-12.4
				C61.4,43.1,55.9,37.6,49.1,37.6z M56.1,58.2c-0.1-0.2-0.3-0.4-0.5-0.4c-0.3,0-0.5,0.2-0.5,0.5c0,0.2,0.1,0.4,0.3,0.5
				c-0.5,0.4-1,0.7-1.6,0.9c0-0.3-0.3-0.5-0.5-0.5c-0.3,0-0.5,0.2-0.5,0.5c0,0.1,0,0.2,0.1,0.3c-0.6,0.2-1.1,0.4-1.7,0.5
				c0,0,0-0.1,0-0.1c0-0.3-0.2-0.5-0.5-0.5c-0.3,0-0.5,0.2-0.5,0.5c0,0.1,0,0.2,0.1,0.2c-0.3,0-0.6,0-0.9,0c-0.3,0-0.6,0-0.9,0
				c0-0.1,0.1-0.2,0.1-0.3c0-0.3-0.2-0.5-0.5-0.5c-0.3,0-0.5,0.2-0.5,0.5c0,0,0,0.1,0,0.1c-0.6-0.1-1.2-0.3-1.8-0.5
				c0.1-0.1,0.2-0.3,0.2-0.4c0-0.3-0.2-0.5-0.5-0.5c-0.3,0-0.5,0.2-0.5,0.5c0,0,0,0,0,0.1c-0.6-0.3-1.1-0.6-1.6-0.9
				c0.2-0.1,0.4-0.3,0.4-0.5c0-0.3-0.2-0.5-0.5-0.5c-0.3,0-0.5,0.2-0.5,0.5c-0.5-0.4-1-0.9-1.4-1.4c0.3,0,0.5-0.3,0.5-0.5
				c0-0.3-0.2-0.5-0.5-0.5c-0.2,0-0.4,0.2-0.5,0.4c-0.4-0.5-0.7-1.1-1-1.6c0,0,0,0,0,0c0.3,0,0.5-0.2,0.5-0.5c0-0.3-0.2-0.5-0.5-0.5
				c-0.2,0-0.3,0.1-0.4,0.2c-0.2-0.6-0.4-1.2-0.5-1.9c0.1,0,0.1,0,0.2,0c0.3,0,0.5-0.2,0.5-0.5c0-0.3-0.2-0.5-0.5-0.5
				c-0.1,0-0.2,0-0.3,0.1c0-0.3,0-0.6,0-0.9c0-0.3,0-0.6,0-0.9c0.1,0.1,0.2,0.1,0.3,0.1c0.3,0,0.5-0.2,0.5-0.5
				c0-0.3-0.2-0.5-0.5-0.5c-0.1,0-0.1,0-0.2,0c0.1-0.6,0.3-1.3,0.5-1.9c0.1,0.1,0.2,0.2,0.4,0.2c0.3,0,0.5-0.2,0.5-0.5
				c0-0.3-0.2-0.5-0.5-0.5c0,0,0,0-0.1,0c0.3-0.6,0.6-1.1,1-1.7c0.1,0.2,0.3,0.3,0.5,0.3c0.3,0,0.5-0.2,0.5-0.5
				c0-0.3-0.2-0.5-0.5-0.5c0.4-0.5,0.8-0.9,1.3-1.3c0,0.2,0.3,0.4,0.5,0.4c0.3,0,0.5-0.2,0.5-0.5c0-0.2-0.1-0.4-0.3-0.5
				c0.5-0.4,1.1-0.7,1.7-1c0,0,0,0.1,0,0.1c0,0.3,0.2,0.5,0.5,0.5c0.3,0,0.5-0.2,0.5-0.5c0-0.2-0.1-0.3-0.2-0.4
				c0.6-0.2,1.2-0.4,1.8-0.5c0,0,0,0,0,0.1c0,0.3,0.2,0.5,0.5,0.5c0.3,0,0.5-0.2,0.5-0.5c0-0.1,0-0.1,0-0.2c0.3,0,0.6,0,0.8,0
				c0.3,0,0.6,0,0.9,0c0,0.1,0,0.1,0,0.2c0,0.3,0.2,0.5,0.5,0.5c0.3,0,0.5-0.2,0.5-0.5c0,0,0,0,0-0.1c0.6,0.1,1.2,0.3,1.8,0.5
				c-0.1,0.1-0.1,0.2-0.1,0.4c0,0.3,0.2,0.5,0.5,0.5c0.3,0,0.5-0.2,0.5-0.5c0.5,0.3,1.1,0.6,1.5,0.9c-0.2,0.1-0.3,0.3-0.3,0.5
				c0,0.3,0.2,0.5,0.5,0.5c0.2,0,0.5-0.2,0.5-0.4c0.5,0.4,0.9,0.8,1.3,1.3c-0.2,0.1-0.4,0.3-0.4,0.5c0,0.3,0.2,0.5,0.5,0.5
				c0.2,0,0.3-0.1,0.4-0.2c0.3,0.5,0.6,1,0.9,1.6c0,0,0,0,0,0c-0.3,0-0.5,0.2-0.5,0.5c0,0.3,0.2,0.5,0.5,0.5c0.2,0,0.3-0.1,0.4-0.2
				c0.2,0.6,0.4,1.2,0.5,1.9c-0.1,0-0.1,0-0.2,0c-0.3,0-0.5,0.2-0.5,0.5c0,0.3,0.2,0.5,0.5,0.5c0.1,0,0.2,0,0.3-0.1
				c0,0.3,0,0.6,0,0.9c0,0.3,0,0.6,0,0.9c-0.1,0-0.2-0.1-0.3-0.1c-0.3,0-0.5,0.2-0.5,0.5c0,0.3,0.2,0.5,0.5,0.5c0,0,0.1,0,0.1,0
				c-0.1,0.6-0.3,1.2-0.5,1.8c-0.1-0.1-0.2-0.2-0.4-0.2c-0.3,0-0.5,0.2-0.5,0.5c0,0.3,0.2,0.5,0.5,0.5c0,0,0,0,0,0
				c-0.3,0.6-0.6,1.1-0.9,1.6c-0.1-0.1-0.3-0.2-0.5-0.2c-0.3,0-0.5,0.2-0.5,0.5c0,0.2,0.2,0.4,0.4,0.5C57,57.4,56.5,57.8,56.1,58.2z
				"/>
			<path class="st4" d="M49.1,47.8c-1.2,0-2.1,1-2.1,2.1c0,1.2,0.9,2.1,2.1,2.1c1.2,0,2.1-1,2.1-2.1C51.2,48.8,50.3,47.8,49.1,47.8z
				"/>
			<polygon class="st4" points="49.6,45.7 49.1,39.4 49.1,39.4 48.6,45.7 49.1,47.8 49.1,47.8 49.1,47.8 49.1,47.8 49.1,47.8 			"/>
			<polygon class="st4" points="44.8,49.5 38.6,50 38.6,50 44.8,50.5 47,50 47,50 47,50 47,50 47,50 			"/>
			<polygon class="st4" points="46.5,46.6 41.7,42.5 41.7,42.5 45.8,47.3 47.6,48.4 47.6,48.5 47.6,48.4 47.6,48.5 47.6,48.4 			"/>
			<polygon class="st4" points="45.7,47.4 40.1,44.7 40.1,44.7 45.2,48.3 47.3,48.9 47.4,48.9 47.3,48.9 47.4,48.9 47.3,48.9 			"/>
			<polygon class="st4" points="45.1,48.4 39,47.2 39,47.2 44.8,49.3 47,49.4 47,49.4 47,49.4 47,49.4 47,49.4 			"/>
			<polygon class="st4" points="47.4,46 43.8,40.9 43.8,40.9 46.6,46.5 48.1,48.1 48.1,48.2 48.1,48.1 48.1,48.1 48.1,48.1 			"/>
			<polygon class="st4" points="48.5,45.7 46.5,39.7 46.5,39.7 47.5,45.9 48.5,47.9 48.5,47.9 48.5,47.9 48.6,47.9 48.5,47.9 			"/>
			<polygon class="st4" points="53.4,49.5 59.7,50 59.7,50 53.4,50.5 51.3,50 51.3,50 51.3,50 51.3,50 51.3,50 			"/>
			<polygon class="st4" points="51.8,46.6 56.5,42.5 56.5,42.5 52.5,47.3 50.6,48.4 50.6,48.5 50.6,48.4 50.6,48.5 50.6,48.4 			"/>
			<polygon class="st4" points="52.5,47.4 58.2,44.7 58.2,44.7 53,48.3 50.9,48.9 50.9,48.9 50.9,48.9 50.9,48.9 50.9,48.9 			"/>
			<polygon class="st4" points="53.2,48.4 59.3,47.2 59.3,47.2 53.4,49.3 51.2,49.4 51.2,49.4 51.2,49.4 51.2,49.4 51.2,49.4 			"/>
			<polygon class="st4" points="50.8,46 54.5,40.9 54.5,40.9 51.7,46.5 50.2,48.1 50.2,48.2 50.2,48.1 50.2,48.2 50.2,48.1 			"/>
			<polygon class="st4" points="49.8,45.7 51.8,39.7 51.8,39.7 50.7,45.9 49.7,47.9 49.7,47.9 49.7,47.9 49.7,47.9 49.7,47.9 			"/>
			<polygon class="st4" points="49.6,54.3 49.1,60.6 49.1,60.6 48.6,54.3 49.1,52.2 49.1,52.1 49.1,52.1 49.1,52.1 49.1,52.2 			"/>
			<polygon class="st4" points="46.5,53.4 41.7,57.5 41.7,57.5 45.8,52.7 47.6,51.5 47.6,51.5 47.6,51.5 47.6,51.5 47.6,51.5 			"/>
			<polygon class="st4" points="45.7,52.6 40.1,55.2 40.1,55.2 45.2,51.7 47.3,51.1 47.4,51 47.3,51.1 47.4,51 47.3,51.1 			"/>
			<polygon class="st4" points="45.1,51.6 39,52.8 39,52.8 44.8,50.6 47,50.5 47,50.5 47,50.5 47,50.5 47,50.5 			"/>
			<polygon class="st4" points="47.4,53.9 43.8,59.1 43.8,59.1 46.6,53.4 48.1,51.8 48.1,51.8 48.1,51.8 48.1,51.8 48.1,51.8 			"/>
			<polygon class="st4" points="48.5,54.3 46.5,60.2 46.5,60.2 47.5,54 48.5,52.1 48.5,52.1 48.5,52.1 48.6,52.1 48.5,52.1 			"/>
			<polygon class="st4" points="51.8,53.4 56.5,57.5 56.5,57.5 52.5,52.7 50.6,51.5 50.6,51.5 50.6,51.5 50.6,51.5 50.6,51.5 			"/>
			<polygon class="st4" points="52.5,52.6 58.2,55.2 58.2,55.2 53,51.7 50.9,51.1 50.9,51 50.9,51 50.9,51 50.9,51.1 			"/>
			<polygon class="st4" points="53.2,51.6 59.3,52.8 59.3,52.8 53.4,50.6 51.2,50.5 51.2,50.5 51.2,50.5 51.2,50.5 51.2,50.5 			"/>
			<polygon class="st4" points="50.8,53.9 54.5,59.1 54.5,59.1 51.7,53.4 50.2,51.8 50.2,51.8 50.2,51.8 50.2,51.8 50.2,51.8 			"/>
			<polygon class="st4" points="49.8,54.3 51.8,60.2 51.8,60.2 50.7,54 49.7,52.1 49.7,52.1 49.7,52.1 49.7,52.1 49.7,52.1 			"/>
		</g>
	</g>
</g>
<path class="st5" d="M50,5C25.1,5,5,25.1,5,50s20.1,45,45,45s45-20.1,45-45S74.9,5,50,5z M50,93C26.3,93,7,73.7,7,50S26.3,7,50,7
	s43,19.3,43,43S73.7,93,50,93z"/>
</svg>
