<svg xmlns="http://www.w3.org/2000/svg" width="50" height="50" viewBox="0 0 50 50"><defs><style>.a{fill:#fddd04;}</style></defs><path d="M86.233,99.2H63.767A13.814,13.814,0,0,1,50,85.433V62.967A13.814,13.814,0,0,1,63.767,49.2H86.233A13.814,13.814,0,0,1,100,62.967V85.433A13.814,13.814,0,0,1,86.233,99.2Z" transform="translate(-50 -49.2)"/><g transform="translate(6.928 7.063)"><path class="a" d="M111,91.8c.668.1,1.353.15,2.022.284a17.957,17.957,0,0,1,11.964,7.866,1.4,1.4,0,0,1-.351,1.987,1.413,1.413,0,0,1-2.005-.451,14.989,14.989,0,0,0-7.987-6.1,15.241,15.241,0,1,0-7.8,29.409c6.383,1.2,11.6-.969,15.523-6.146a1.616,1.616,0,0,1,1.287-.818,1.311,1.311,0,0,1,1.27.735,1.37,1.37,0,0,1-.1,1.5,17.647,17.647,0,0,1-3.776,4.025,17.857,17.857,0,0,1-11.981,3.841A18.063,18.063,0,0,1,104.97,92.5a34.049,34.049,0,0,1,3.459-.618,1.944,1.944,0,0,0,.3-.067C109.481,91.8,110.25,91.8,111,91.8Z" transform="translate(-91.783 -91.8)"/><path class="a" d="M258.832,177.257a1.552,1.552,0,0,1-1.757,1.127c-.564-.033-1.144,0-1.757,0,0,.68.017,1.326,0,1.973a2.108,2.108,0,0,1-.1.647,1.4,1.4,0,0,1-2.7-.481c-.017-.7,0-1.393,0-2.155h-2.139A1.412,1.412,0,0,1,249,176.959a1.387,1.387,0,0,1,1.376-1.393c.7-.017,1.393,0,2.139,0,0-.746-.017-1.442,0-2.155a1.4,1.4,0,0,1,2.669-.531,1.909,1.909,0,0,1,.133.68c.017.647,0,1.31,0,2.006.6,0,1.177.033,1.757,0a1.562,1.562,0,0,1,1.757,1.127Z" transform="translate(-222.673 -158.621)"/><path class="a" d="M187.394,166.045a4.215,4.215,0,1,1-6.135-.017,3.832,3.832,0,0,1-.68-3.233,3.729,3.729,0,0,1,1.476-2.222,3.861,3.861,0,0,1,5.339,5.471Zm-3.067,1.509a1.4,1.4,0,1,0,1.393,1.409A1.384,1.384,0,0,0,184.327,167.553Zm1.045-3.863a1.062,1.062,0,0,0-1.045-1.045,1.076,1.076,0,0,0-1.061,1.045,1.058,1.058,0,0,0,1.061,1.061A1.076,1.076,0,0,0,185.371,163.69Z" transform="translate(-165.334 -148.423)"/><path class="a" d="M133.227,164.449c-.182.133-.315.216-.448.3a1.384,1.384,0,0,1-1.874-.365,1.354,1.354,0,0,1,.265-1.907c.879-.663,1.774-1.326,2.686-1.956a1.39,1.39,0,0,1,2.172,1.144c0,3.5.017,6.98,0,10.479a1.374,1.374,0,0,1-1.426,1.376,1.4,1.4,0,0,1-1.376-1.426v-7.643Z" transform="translate(-124.134 -148.783)"/></g></svg>