<svg xmlns="http://www.w3.org/2000/svg" width="60" height="60" viewBox="0 0 60 60"><defs><style>.a{fill:#fddd04;}</style></defs><path d="M93.48,109.2H66.52A16.576,16.576,0,0,1,50,92.68V65.72A16.576,16.576,0,0,1,66.52,49.2H93.48A16.576,16.576,0,0,1,110,65.72V92.68A16.576,16.576,0,0,1,93.48,109.2Z" transform="translate(-50 -49.2)"/><path class="a" d="M151.285,119.166H160.1a2.894,2.894,0,0,1,.836.1,1.522,1.522,0,0,1,1.035,1.825c-.239,1.1-.5,2.206-.8,3.289a1.623,1.623,0,0,1-1.771,1.244h-8.138v14.26c0,1.424-.577,2.006-1.95,2.006h-2.567c-1.273,0-1.87-.622-1.87-1.925V125.624H138.77a1.655,1.655,0,0,1-1.87-1.885v-2.808a1.633,1.633,0,0,1,1.751-1.785h6.227v-6.258A9.637,9.637,0,0,1,154.647,103h4.417a1.616,1.616,0,0,1,1.791,1.785v2.848a1.649,1.649,0,0,1-1.83,1.825h-4.317a3.222,3.222,0,0,0-3.442,3.51v5.656A4.574,4.574,0,0,1,151.285,119.166Z" transform="translate(-119.454 -92.296)"/></svg>