<svg xmlns="http://www.w3.org/2000/svg" width="60" height="60" viewBox="0 0 60 60"><defs><style>.a{fill:#fddd04;}</style></defs><path d="M93.48,109.2H66.52A16.576,16.576,0,0,1,50,92.68V65.72A16.576,16.576,0,0,1,66.52,49.2H93.48A16.576,16.576,0,0,1,110,65.72V92.68A16.576,16.576,0,0,1,93.48,109.2Z" transform="translate(-50 -49.2)"/><g transform="translate(6.188 12.287)"><path class="a" d="M81.1,123.8c.06-.975.12-1.97.18-2.945A19.781,19.781,0,0,1,82.021,116a7.117,7.117,0,0,1,6.629-5.292c2.163-.2,4.326-.279,6.489-.358,7.13-.279,14.279-.239,21.409.08,1.8.08,3.625.139,5.407.4a7.126,7.126,0,0,1,5.968,5.69,33.979,33.979,0,0,1,.661,6.824,105.16,105.16,0,0,1-.3,14.206,9.734,9.734,0,0,1-1.8,5.073,6.626,6.626,0,0,1-4.746,2.666c-2.664.239-5.347.358-8.011.458-6.709.279-13.418.159-20.107-.1a47.729,47.729,0,0,1-6.088-.537c-3.124-.517-4.927-2.527-5.688-5.551a31.271,31.271,0,0,1-.641-6.088c-.02-.358-.06-.736-.1-1.094C81.1,129.53,81.1,126.665,81.1,123.8Zm24.834-10.943c-4.386.1-7.711.159-11.035.279-2.023.06-4.046.159-6.068.338a4.366,4.366,0,0,0-4.025,3.044,15.92,15.92,0,0,0-.721,4.218A119.4,119.4,0,0,0,84.1,135.4a26.3,26.3,0,0,0,.541,3.74,3.9,3.9,0,0,0,1.142,2.169,4.891,4.891,0,0,0,2.944,1.234c1.642.159,3.264.3,4.907.358,7.49.3,14.98.378,22.491.02,1.8-.08,3.585-.159,5.367-.378a3.932,3.932,0,0,0,3.4-2.686,15.383,15.383,0,0,0,.821-4.656,125.8,125.8,0,0,0,.08-12.594,23.228,23.228,0,0,0-.621-5.631,4.615,4.615,0,0,0-1.522-2.507,5.7,5.7,0,0,0-3.4-1.054C115.126,113.175,110,113,105.934,112.857Z" transform="translate(-81.1 -110.164)"/><path class="a" d="M165.4,166.216v-6.048a2.157,2.157,0,0,1,3.382-2.01c3.721,2.029,7.421,4.059,11.142,6.088a2.166,2.166,0,0,1,1.313,2.029,2.219,2.219,0,0,1-1.333,1.97c-3.721,1.99-7.421,4-11.142,5.969a2.147,2.147,0,0,1-3.362-2.029Zm11.739.04c-2.925-1.592-5.75-3.144-8.635-4.715v9.351C171.389,169.34,174.214,167.828,177.139,166.256Z" transform="translate(-148.461 -148.322)"/></g></svg>