<svg xmlns="http://www.w3.org/2000/svg" width="60" height="60" viewBox="0 0 60 60"><defs><style>.a{fill:#fddd04;}</style></defs><path d="M93.48,109.2H66.52A16.576,16.576,0,0,1,50,92.68V65.72A16.576,16.576,0,0,1,66.52,49.2H93.48A16.576,16.576,0,0,1,110,65.72V92.68A16.576,16.576,0,0,1,93.48,109.2Z" transform="translate(-50 -49.2)"/><path class="a" d="M93.66,144.836a2.621,2.621,0,0,1,.922-1.385,2.869,2.869,0,0,1,1.623-.442,16.783,16.783,0,0,0,4.229-.582c.04-.02.1-.02.12-.04-.661-.462-1.343-.883-1.964-1.405a9.4,9.4,0,0,1-2.826-4.436,1.943,1.943,0,0,1,.942-2.248,3.244,3.244,0,0,0,.361-.2c-.461-.683-.982-1.3-1.363-2.007a21.7,21.7,0,0,1-1.323-2.951,1.986,1.986,0,0,1,1.543-2.549c.1-.02.18-.04.3-.06-.2-.622-.421-1.2-.581-1.827a9.584,9.584,0,0,1,.561-6.5,12.436,12.436,0,0,1,.561-1.164,1.484,1.484,0,0,1,2.505-.422c.641.622,1.263,1.285,1.924,1.887a21.636,21.636,0,0,0,9.059,5.039c.8.221,1.623.422,2.425.642.18-.743.321-1.445.541-2.128a10.075,10.075,0,0,1,9.16-6.986,8.249,8.249,0,0,1,3.467.7c.762.3,1.5.683,2.285,1a1.015,1.015,0,0,0,.641.04c1.323-.5,2.646-1.044,3.969-1.566a1.952,1.952,0,0,1,2.145.3,1.926,1.926,0,0,1,.5,2.268c-.1.281-.22.562-.361.883a1.919,1.919,0,0,1,1.1,1.586,3.735,3.735,0,0,1-.2,1.325,7.664,7.664,0,0,1-2.826,3.854.742.742,0,0,0-.3.7,25.5,25.5,0,0,1-2.265,9.9,23.72,23.72,0,0,1-12.667,12.586,20.894,20.894,0,0,1-8.438,1.586,44.5,44.5,0,0,1-8.919-.883,17.244,17.244,0,0,1-5.351-1.987,3.1,3.1,0,0,1-1.563-1.847A2.335,2.335,0,0,0,93.66,144.836Zm3.427.783a5.706,5.706,0,0,0,.922.422c.942.3,1.884.642,2.866.863a41.461,41.461,0,0,0,8.9.9,18.1,18.1,0,0,0,5.372-.763,20.075,20.075,0,0,0,9.561-6.263,23.017,23.017,0,0,0,5.472-12.446,29.185,29.185,0,0,0,.2-2.951,1.731,1.731,0,0,1,.942-1.626c.14-.08.261-.161.381-.241a5.331,5.331,0,0,0,1.724-2.148.509.509,0,0,0-.14-.04,1.463,1.463,0,0,1-1.2-2.349c.14-.241.3-.482.5-.823-.24.1-.381.14-.521.2-.962.361-1.944.723-2.906,1.1a1.982,1.982,0,0,1-1.684-.1,19.807,19.807,0,0,0-2.485-1.144,7.291,7.291,0,0,0-2.405-.522,6.8,6.8,0,0,0-4.77,1.947,7.929,7.929,0,0,0-2.586,5.761,1.485,1.485,0,0,1-1.8,1.586,37.8,37.8,0,0,1-6.775-1.927,23.336,23.336,0,0,1-7.476-4.938c-.22-.2-.441-.4-.681-.642a7.283,7.283,0,0,0-.1,5.581,11.824,11.824,0,0,0,1.784,2.931,1.427,1.427,0,0,1,.06,1.807,1.488,1.488,0,0,1-1.744.5c-.361-.12-.722-.261-1.082-.381-.04.02-.06.06-.1.08.461.7.882,1.425,1.383,2.088a12.854,12.854,0,0,0,2.826,2.69,1.473,1.473,0,0,1-1.142,2.67c-.541-.08-1.1-.2-1.664-.3a6.281,6.281,0,0,0,2.385,2.67,9.067,9.067,0,0,0,2.826,1.044,1.509,1.509,0,0,1,1.3,1.325,1.471,1.471,0,0,1-.922,1.526,16.564,16.564,0,0,1-2.646,1.064C100.114,145.057,98.571,145.318,97.088,145.619Z" transform="translate(-84.925 -101.955)"/></svg>