<?xml version="1.0" encoding="utf-8"?>
<!-- Generator: Adobe Illustrator 26.0.3, SVG Export Plug-In . SVG Version: 6.00 Build 0)  -->
<svg version="1.1" id="Layer_1" xmlns="http://www.w3.org/2000/svg" xmlns:xlink="http://www.w3.org/1999/xlink" x="0px" y="0px"
	 viewBox="0 0 60 60" style="enable-background:new 0 0 60 60;" xml:space="preserve">
<style type="text/css">
	.st0{fill:#E8E7C8;}
	.st1{fill:#D6D3AA;}
	.st2{fill:#FDDD04;}
</style>
<path d="M43.5,60h-27C7.4,60,0,52.6,0,43.5v-27C0,7.4,7.4,0,16.5,0h27C52.6,0,60,7.4,60,16.5v27C60,52.6,52.6,60,43.5,60z"/>
<g>
	<path class="st0" d="M17.2,32.3l4.4,12.2c0,0,0.6,1.1,1.1,1.1s9.4-9.1,9.4-9.1l9.8-18.8L17.3,29.2L17.2,32.3z"/>
	<path class="st1" d="M23,35.4l-0.8,9c0,0-0.4,2.8,2.4,0s5.4-4.9,5.4-4.9"/>
	<path class="st2" d="M17.2,32.7l-9.1-3c0,0-1.1-0.4-0.7-1.4c0.1-0.2,0.2-0.4,0.6-0.7c2-1.4,37.2-14,37.2-14s1-0.3,1.6-0.1
		c0.3,0.1,0.5,0.3,0.6,0.6c0.1,0.3,0.1,0.5,0.1,0.8c0,0.2,0,0.4-0.1,0.8C47.2,19.2,40.8,45,40.8,45s-0.4,1.5-1.8,1.6
		c-0.7,0-1.3-0.2-1.8-0.7c-2.7-2.3-12-8.6-14.1-10c-0.1-0.1-0.2-0.2-0.2-0.3c0-0.1,0.1-0.3,0.1-0.3s16.2-14.4,16.7-15.9
		c0-0.1-0.1-0.2-0.3-0.1c-1.1,0.4-19.8,12.2-21.8,13.5C17.5,32.8,17.4,32.8,17.2,32.7z"/>
</g>
</svg>
