<svg xmlns="http://www.w3.org/2000/svg" width="60" height="60" viewBox="0 0 60 60"><defs><style>.a{fill:#fddd04;}</style></defs><path d="M93.48,109.2H66.52A16.576,16.576,0,0,1,50,92.68V65.72A16.576,16.576,0,0,1,66.52,49.2H93.48A16.576,16.576,0,0,1,110,65.72V92.68A16.576,16.576,0,0,1,93.48,109.2Z" transform="translate(-50 -49.2)"/><g transform="translate(10.17 10.164)"><path class="a" d="M114.215,99.5h11.858l.7.06a41.208,41.208,0,0,1,4.457.438,10.069,10.069,0,0,1,7.919,6.765,16.26,16.26,0,0,1,.816,5.611c.02,4.556.04,9.093-.02,13.649a24.21,24.21,0,0,1-.4,4.317,10.115,10.115,0,0,1-6.566,7.919,15.555,15.555,0,0,1-5.471.9c-4.178.04-8.376.08-12.554.06a26.74,26.74,0,0,1-6.168-.517,10.2,10.2,0,0,1-7.182-5.73,14.139,14.139,0,0,1-1.194-5.989c-.04-4.3-.1-8.575-.06-12.873a40.994,40.994,0,0,1,.378-5.412,10.045,10.045,0,0,1,4.019-6.785A12.036,12.036,0,0,1,111.33,99.7C112.3,99.58,113.26,99.54,114.215,99.5Zm5.989,36.191v-.06c1.054,0,2.089.04,3.144,0,2.248-.08,4.5-.06,6.725-.338a6.568,6.568,0,0,0,5.83-4.894,14.738,14.738,0,0,0,.5-4.059c.04-3.522.1-7.023.06-10.545a59.82,59.82,0,0,0-.318-6.267,6.538,6.538,0,0,0-5.531-5.969,22.725,22.725,0,0,0-4.2-.378c-3.462-.06-6.924-.04-10.386-.04a34.981,34.981,0,0,0-5.949.318,6.675,6.675,0,0,0-5.69,5.432,22.057,22.057,0,0,0-.378,3.959c-.06,3.183-.1,6.387-.06,9.57.02,2.228.1,4.477.3,6.685a6.627,6.627,0,0,0,2.885,5.014,8.272,8.272,0,0,0,4.5,1.353C114.493,135.592,117.338,135.631,120.2,135.691Z" transform="translate(-100.334 -99.5)"/><path class="a" d="M148.8,158.207a10.207,10.207,0,1,1,10.227,10.187A10.215,10.215,0,0,1,148.8,158.207Zm10.187,6.605a6.616,6.616,0,1,0-6.586-6.625A6.589,6.589,0,0,0,158.987,164.812Z" transform="translate(-139.157 -138.35)"/><path class="a" d="M243.846,134.1a2.33,2.33,0,0,1,2.308,2.447,2.379,2.379,0,1,1-2.308-2.447Z" transform="translate(-213.332 -127.211)"/></g></svg>