<svg width="20" height="18" viewBox="0 0 20 18" fill="none" xmlns="http://www.w3.org/2000/svg">
<path d="M0.466796 6.91297C0.624257 6.91297 0.778251 6.83375 0.866139 6.68882C1.42446 5.77451 2.37118 4.8313 3.6806 3.88497C3.80182 3.79747 3.87372 3.65619 3.87372 3.50586C3.87372 3.35592 3.80183 3.21484 3.68021 3.12714C2.37312 2.18294 1.4262 1.23972 0.866148 0.32408C0.731235 0.104175 0.443681 0.0347895 0.223948 0.169126C0.00365806 0.303654 -0.0659194 0.591401 0.0684168 0.811523C0.615195 1.70678 1.47557 2.61162 2.6273 3.50629C1.47439 4.40308 0.615589 5.30717 0.0684168 6.20105C-0.0655296 6.42154 0.00404286 6.7091 0.223948 6.84325C0.300271 6.89086 0.3843 6.91302 0.46679 6.91302L0.466796 6.91297Z" fill="#333"/>
<path d="M16.3634 3.17849C16.3634 3.47626 16.6051 3.71776 16.9023 3.71776C17.1997 3.71776 17.4412 3.47608 17.4412 3.17849C17.4412 2.88149 17.1997 2.6396 16.9023 2.6396C16.6053 2.6398 16.3634 2.88148 16.3634 3.17849Z" fill="#333"/>
<path d="M12.251 7.01462C12.7199 7.01462 13.1904 6.98976 13.6497 6.94119C13.9064 6.9142 14.0924 6.68369 14.0652 6.42756C14.0378 6.17065 13.8077 5.98389 13.5514 6.01203C13.1249 6.05713 12.6873 6.08007 12.251 6.08007C9.37721 6.08007 6.73638 5.05687 5.54039 3.50692C6.73589 1.95792 9.37692 0.934917 12.251 0.934917C15.1212 0.934917 17.7583 1.95525 18.9557 3.50115C18.4107 4.18495 17.436 5.00388 15.7153 5.55895V2.63638C15.7153 2.37831 15.5062 2.1692 15.2482 2.1692C14.9901 2.1692 14.781 2.37831 14.781 2.63638V6.18186C14.781 6.32833 14.8498 6.46652 14.9666 6.55479C15.0838 6.64326 15.2354 6.67082 15.3761 6.63131L15.4577 6.60895C18.0106 5.92126 19.2926 4.6857 19.9184 3.77081C20.0248 3.61527 20.0273 3.41156 19.925 3.25294C18.6473 1.27685 15.6352 0 12.2507 0C8.86655 0 5.8534 1.27646 4.57551 3.25254C4.47568 3.40692 4.47568 3.60563 4.57551 3.7602C5.8535 5.73722 8.8665 7.01467 12.2507 7.01467L12.251 7.01462Z" fill="#333"/>
<path d="M19.5332 16.913C19.3757 16.913 19.2217 16.8338 19.1339 16.6888C18.5755 15.7745 17.6288 14.8313 16.3194 13.885C16.1982 13.7975 16.1263 13.6562 16.1263 13.5059C16.1263 13.3559 16.1982 13.2148 16.3198 13.1271C17.6269 12.1829 18.5738 11.2397 19.1339 10.3241C19.2688 10.1042 19.5563 10.0348 19.7761 10.1691C19.9963 10.3037 20.0659 10.5914 19.9316 10.8115C19.3848 11.7068 18.5244 12.6116 17.3727 13.5063C18.5256 14.4031 19.3844 15.3072 19.9316 16.2011C20.0655 16.4215 19.996 16.7091 19.7761 16.8433C19.6997 16.8909 19.6157 16.913 19.5332 16.913L19.5332 16.913Z" fill="#333"/>
<path d="M3.63658 13.1784C3.63658 13.4762 3.39489 13.7177 3.09769 13.7177C2.80031 13.7177 2.55881 13.476 2.55881 13.1784C2.55881 12.8814 2.8003 12.6395 3.09769 12.6395C3.39469 12.6397 3.63658 12.8814 3.63658 13.1784Z" fill="#333"/>
<path d="M7.74901 17.0146C7.2801 17.0146 6.80964 16.9898 6.35034 16.9412C6.09363 16.9142 5.90764 16.6837 5.93481 16.4276C5.96218 16.1707 6.19231 15.9839 6.44863 16.012C6.87515 16.0571 7.31266 16.0801 7.74897 16.0801C10.6228 16.0801 13.2636 15.0569 14.4596 13.5069C13.2641 11.9579 10.6231 10.9349 7.74897 10.9349C4.87881 10.9349 2.24172 11.9553 1.04425 13.5012C1.5893 14.1849 2.56395 15.0039 4.28466 15.5589V12.6364C4.28466 12.3783 4.49378 12.1692 4.75184 12.1692C5.00991 12.1692 5.21903 12.3783 5.21903 12.6364V16.1819C5.21903 16.3283 5.15022 16.4665 5.03343 16.5548C4.91625 16.6433 4.76457 16.6708 4.62387 16.6313L4.54235 16.6089C1.98944 15.9213 0.707355 14.6857 0.0815846 13.7708C-0.0248008 13.6153 -0.0273066 13.4116 0.0750325 13.2529C1.35267 11.2769 4.36484 10 7.74927 10C11.1334 10 14.1466 11.2765 15.4245 13.2525C15.5243 13.4069 15.5243 13.6056 15.4245 13.7602C14.1465 15.7372 11.1335 17.0147 7.74927 17.0147L7.74901 17.0146Z" fill="#333"/>
</svg>
