<?xml version="1.0" encoding="utf-8"?>
<!-- Generator: Adobe Illustrator 23.0.3, SVG Export Plug-In . SVG Version: 6.00 Build 0)  -->
<svg version="1.1" id="Layer_1" xmlns="http://www.w3.org/2000/svg" xmlns:xlink="http://www.w3.org/1999/xlink" x="0px" y="0px"
	 viewBox="0 0 20 20" style="enable-background:new 0 0 20 20;" xml:space="preserve">
<g>
	<path d="M14.6,5.4c-1.1-1.1-3-1.2-4.2,0s-1.2,3,0,4.2c1.1,1.1,3,1.2,4.2,0S15.8,6.5,14.6,5.4L14.6,5.4z M11.2,8.8
		c-0.7-0.7-0.8-2,0-2.7s2-0.8,2.7,0c0.7,0.7,0.8,2,0,2.7S11.9,9.6,11.2,8.8z"/>
	<path d="M16,10.9c1.7-2.5,3-5.2,3.9-8c0.3-0.8,0-1.7-0.6-2.2c-0.6-0.6-1.5-0.8-2.2-0.6C14.3,1,11.5,2.4,9.1,4
		C6.4,2.3,2.9,2.6,0.6,4.8L0.6,4.9c-0.8,0.8-0.8,2.1,0,2.9c0.3,0.3,0.7,0.5,1.1,0.6c0.6,0.1,1.1,0.3,1.7,0.5L3,9.3
		C2.9,9.5,2.8,9.7,2.9,9.9l2.2,4.7c0,0,0,0.1,0.1,0.1s0.1,0.1,0.1,0.1l4.7,2.2c0.2,0.1,0.4,0.1,0.6-0.1l0.4-0.4
		c0.3,0.6,0.4,1.1,0.5,1.7c0.1,0.4,0.3,0.8,0.6,1.1c0.8,0.8,2.1,0.8,2.9,0l0.1-0.1C17.4,17.1,17.7,13.6,16,10.9L16,10.9z M4.7,7.6
		L4.3,8.1C3.6,7.7,2.8,7.4,1.9,7.3C1.7,7.3,1.5,7.2,1.4,7c-0.3-0.3-0.4-1,0-1.4l0,0C3.2,3.8,6,3.5,8.1,4.7C7.4,5.2,5.1,7.2,4.7,7.6
		L4.7,7.6z M10.2,16L6,14L4,9.8c0,0,3.2-3.3,4-3.7l0,0c2.8-2.2,5.9-3.9,9.3-4.9c0.5-0.1,0.9,0,1.3,0.3c0.3,0.3,0.4,0.8,0.3,1.2
		c-0.8,4.9-8,12.7-8,12.7L10.2,16z M14.4,18.6c-0.4,0.4-1.1,0.3-1.4,0c-0.1-0.1-0.3-0.3-0.3-0.6c-0.1-0.8-0.4-1.6-0.8-2.3
		c0,0,3.1-3.2,3.4-3.9C16.6,14,16.2,16.8,14.4,18.6L14.4,18.6z"/>
	<path d="M4.3,15.7c-0.2-0.2-0.5-0.2-0.7,0l-1.9,1.9c-0.2,0.2-0.2,0.5,0,0.7s0.5,0.2,0.7,0l1.9-1.9C4.5,16.3,4.5,16,4.3,15.7
		L4.3,15.7z"/>
	<path d="M7.8,16.9c-0.2-0.2-0.5-0.2-0.7,0l-1.9,1.9C5,19,5,19.3,5.2,19.5s0.5,0.2,0.7,0l1.9-1.9C8.1,17.4,8.1,17.1,7.8,16.9
		L7.8,16.9z"/>
	<path d="M3.1,12.2c-0.2-0.2-0.5-0.2-0.7,0L0.5,14c-0.2,0.2-0.2,0.5,0,0.7s0.5,0.2,0.7,0l1.9-1.9C3.3,12.7,3.3,12.3,3.1,12.2
		L3.1,12.2z"/>
</g>
</svg>
