<svg width="18" height="18" viewBox="0 0 18 18" fill="none" xmlns="http://www.w3.org/2000/svg">
<path d="M9.00052 3.56969e-05C6.61337 3.56969e-05 4.32416 0.948344 2.6362 2.63623C0.948308 4.32412 0 6.61362 0 9.00055C0 11.3875 0.948308 13.6769 2.6362 15.3649C4.32409 17.0528 6.61359 18.0011 9.00052 18.0011C11.3875 18.0011 13.6769 17.0528 15.3648 15.3649C17.0527 13.677 18.001 11.3875 18.001 9.00055C18.001 7.42067 17.5851 5.86854 16.7952 4.50028C16.0052 3.13201 14.869 1.9958 13.5008 1.20586C12.1325 0.415918 10.5804 0 9.00048 0L9.00052 3.56969e-05ZM11.0227 16.5328C11.6907 15.4687 12.2087 13.8906 12.4827 12.0286L16.189 12.0288C15.7257 13.1222 15.0199 14.0959 14.1249 14.8762C13.2297 15.6565 12.169 16.2231 11.0227 16.533L11.0227 16.5328ZM1.82211 12.0286L5.51841 12.0288C5.79243 13.8909 6.31839 15.469 6.97846 16.533V16.5328C5.83218 16.223 4.77144 15.6564 3.87631 14.8761C2.98129 14.0957 2.2755 13.1221 1.81215 12.0286H1.82211ZM6.9885 1.46798C6.38843 2.42801 5.90444 3.80616 5.61649 5.4343L2.0662 5.43444C2.56498 4.4687 3.25934 3.61722 4.10497 2.93443C4.95073 2.25164 5.92929 1.75228 6.97846 1.46823L6.9885 1.46798ZM15.9351 5.4343H12.4009C12.1129 3.80613 11.6309 2.43411 11.0289 1.46798C12.0769 1.75274 13.0544 2.25235 13.899 2.93515C14.7436 3.61808 15.437 4.46899 15.9351 5.43419V5.4343ZM9.00077 16.8011C8.65072 16.8011 8.03071 16.201 7.49664 14.9089V14.9091C7.13376 13.9813 6.87871 13.0148 6.7367 12.0288H11.2648C11.1228 13.0148 10.8678 13.9813 10.5049 14.9091C9.97083 16.2011 9.35083 16.8011 9.00077 16.8011V16.8011ZM9.00077 1.20011C9.35082 1.20011 9.97083 1.80018 10.5049 3.09226C10.8046 3.84902 11.0284 4.6335 11.1729 5.43448H6.82871C6.97325 4.6335 7.19701 3.84899 7.49671 3.09226C8.03078 1.80018 8.65078 1.20025 9.00084 1.20025L9.00077 1.20011ZM6.50465 9.00059C6.50409 8.20979 6.55083 7.41971 6.64459 6.63452H11.357C11.4508 7.41971 11.4975 8.20979 11.497 9.00059C11.497 9.61866 11.467 10.2327 11.413 10.8287H6.58874C6.53475 10.2327 6.50475 9.61866 6.50475 9.00059H6.50465ZM5.38055 10.8287H1.41816C1.08206 9.44133 1.13396 7.98828 1.56814 6.62844H5.43445C5.34725 7.41603 5.30386 8.20808 5.30442 9.00052C5.30442 9.62652 5.33037 10.2386 5.38046 10.8286L5.38055 10.8287ZM12.5671 6.62844L16.4334 6.62858C16.8675 7.98831 16.9194 9.4414 16.5833 10.8288H12.621C12.6709 10.2288 12.697 9.6287 12.697 9.00073C12.6974 8.21022 12.654 7.42028 12.567 6.63466L12.5671 6.62844Z" fill="#333333"/>
</svg>
