<svg width="19" height="21" viewBox="0 0 19 21" fill="none" xmlns="http://www.w3.org/2000/svg">
<path d="M18.8554 4.19442C18.8554 1.87801 16.9772 0 14.661 0H4.39389C2.07748 0 0.199463 1.87824 0.199463 4.19442V12.3643C0.199463 14.4303 1.70191 16.1519 3.674 16.4963V20.0335C3.674 20.2839 3.83055 20.5343 4.04955 20.6594C4.14344 20.7221 4.26877 20.7221 4.36266 20.7221C4.51922 20.7221 4.64433 20.6909 4.76966 20.597L6.8669 19.0631C9.1519 17.4041 11.8439 16.5277 14.6611 16.5277C16.9775 16.5277 18.8555 14.6495 18.8555 12.3333L18.8554 4.19442ZM17.4781 12.3643C17.4781 13.8981 16.2261 15.1502 14.6922 15.1502C11.5932 15.1502 8.61956 16.1205 6.08409 17.936L5.08231 18.6559V15.8389C5.08231 15.4633 4.7692 15.1502 4.39367 15.1502C2.85981 15.1502 1.60778 13.8982 1.60778 12.3643L1.608 4.19448C1.608 2.66062 2.85997 1.40859 4.39388 1.40859H14.6923C16.2261 1.40859 17.4782 2.66057 17.4782 4.19448L17.4781 12.3643Z" fill="#333333"/>
<path d="M9.52743 4.41349C8.36931 4.41349 7.24243 5.16479 7.24243 6.60458C7.24243 6.98013 7.55554 7.29322 7.93108 7.29322C8.30661 7.29322 8.61972 6.98011 8.61972 6.60458C8.61972 5.85327 9.43352 5.82202 9.52737 5.82202C9.62122 5.82202 10.435 5.85325 10.435 6.60458V6.76113C10.435 7.07424 10.2785 7.32446 9.9968 7.48103L9.37082 7.82536C9.02648 8.01314 8.83871 8.35747 8.83871 8.73301V9.29633C8.83871 9.67189 9.15182 9.98498 9.52736 9.98498C9.90289 9.98498 10.216 9.67187 10.216 9.29633V8.952L10.6542 8.73278C11.3741 8.35722 11.8123 7.6059 11.8123 6.7921V6.60454C11.8123 5.16454 10.6542 4.41345 9.52735 4.41345L9.52743 4.41349Z" fill="#333333"/>
<path d="M9.52741 10.7678C8.40053 10.7678 8.40053 12.5207 9.52741 12.5207C10.6543 12.5207 10.6543 10.7678 9.52741 10.7678Z" fill="#333333"/>
</svg>
