<svg width="19" height="14" viewBox="0 0 19 14" fill="none" xmlns="http://www.w3.org/2000/svg">
<path d="M2.57017 1.46631H7.7322C7.80991 1.10932 7.99601 0.789392 8.2559 0.54042C8.60355 0.207235 9.08389 0 9.61134 0H17.0808C17.6073 0 18.0871 0.207105 18.435 0.54042C18.7839 0.875074 19 1.3346 19 1.83973V5.58561C19 6.06051 18.8094 6.49544 18.4978 6.82263C18.2691 7.06329 17.9737 7.24551 17.6398 7.34326L17.7503 9.05505C17.766 9.18073 17.7163 9.31136 17.6065 9.39733C17.4358 9.5313 17.1837 9.5071 17.0439 9.34345L15.4055 7.42496H15.1287V8.91372C15.1287 9.59105 14.8394 10.2073 14.3737 10.6536C13.9082 11.0997 13.2652 11.3772 12.5582 11.3772H4.98371L2.16987 13.8976C2.0086 14.0413 1.75581 14.0328 1.60585 13.8781C1.52061 13.7902 1.48685 13.6741 1.50289 13.5636L1.84803 11.2764C1.37565 11.1432 0.959087 10.8835 0.642558 10.539C0.243138 10.1044 0 9.53493 0 8.91376V3.92988C0 3.25388 0.289198 2.63833 0.75502 2.19122L0.757113 2.18921C1.2236 1.74306 1.86562 1.46629 2.57054 1.46629L2.57017 1.46631ZM7.21507 4.72516C6.99423 4.72516 6.81497 4.55335 6.81497 4.34171C6.81497 4.13006 6.99423 3.95825 7.21507 3.95825H11.8796C12.1005 3.95825 12.2797 4.13006 12.2797 4.34171C12.2797 4.55336 12.1004 4.72516 11.8796 4.72516H7.21507ZM3.24837 8.88552C3.02753 8.88552 2.84827 8.71372 2.84827 8.50207C2.84827 8.29042 3.02753 8.11862 3.24837 8.11862H11.8796C12.1005 8.11862 12.2797 8.29043 12.2797 8.50207C12.2797 8.71372 12.1004 8.88552 11.8796 8.88552H3.24837ZM3.24837 6.80527C3.02753 6.80527 2.84827 6.63347 2.84827 6.42182C2.84827 6.21017 3.02753 6.03837 3.24837 6.03837H11.8796C12.1005 6.03837 12.2797 6.21017 12.2797 6.42182C12.2797 6.63347 12.1004 6.80527 11.8796 6.80527H3.24837ZM8.5629 1.46645H12.5582C13.2635 1.46645 13.9058 1.74361 14.3723 2.19005L14.3744 2.19206C14.8399 2.63914 15.1287 3.25445 15.1287 3.93004V6.65808H15.5948C15.7245 6.65808 15.8398 6.71718 15.9127 6.80889L16.8787 7.93988L16.8218 7.05783C16.8091 6.84712 16.9769 6.66569 17.1969 6.65353L17.2037 6.65327C17.4794 6.62425 17.7279 6.49644 17.9074 6.3074C18.0886 6.11701 18.1998 5.86322 18.1998 5.58567V1.8398C18.1998 1.54486 18.074 1.27611 17.8717 1.08183C17.6686 0.88783 17.3886 0.767099 17.0808 0.767099H9.61132C9.30427 0.767099 9.02426 0.887963 8.82145 1.0825C8.70901 1.19026 8.62 1.32116 8.56308 1.4665L8.5629 1.46645ZM12.5582 2.23349H2.57052C2.08296 2.23349 1.64029 2.42388 1.32041 2.73058C0.998847 3.03849 0.800205 3.46274 0.800205 3.93002V8.9139C0.800205 9.34161 0.967472 9.73389 1.24245 10.033C1.51699 10.3315 1.89772 10.5382 2.32432 10.5956L2.35291 10.5985C2.57124 10.6282 2.72301 10.8222 2.69205 11.0314L2.45601 12.5941L4.53479 10.732C4.60775 10.6571 4.71196 10.6102 4.82719 10.6102H12.5581C13.0447 10.6102 13.4874 10.4191 13.8082 10.1116C14.1289 9.80426 14.3284 9.37989 14.3284 8.91381V3.92992C14.3284 3.46265 14.1298 3.0384 13.8098 2.73182C13.4885 2.42364 13.0458 2.23326 12.5582 2.23326L12.5582 2.23349Z" fill="#333333"/>
</svg>
