<svg width="18" height="18" viewBox="0 0 18 18" fill="none" xmlns="http://www.w3.org/2000/svg">
<path fill-rule="evenodd" clip-rule="evenodd" d="M1.79992 9.89999C1.79992 9.40292 1.39704 9.00004 0.899962 9.00004C0.402884 9.00004 0 9.40292 0 9.89999V15.3C0 16.7913 1.20885 18 2.70004 18H15.3C16.7913 18 18 16.7913 18 15.3V9.89999C18 9.40292 17.5971 9.00004 17.1 9.00004C16.603 9.00004 16.2001 9.40292 16.2001 9.89999V15.3C16.2001 15.7971 15.797 16.2001 15.3 16.2001H2.70004C2.20296 16.2001 1.79992 15.7971 1.79992 15.3V9.89999ZM3.86368 6.56371C4.21505 6.2122 4.78489 6.2122 5.1364 6.56371L8.10012 9.52723V0.89995C8.10012 0.402879 8.503 0 9.00008 0C9.49715 0 9.90004 0.402879 9.90004 0.89995V9.52723L12.8638 6.56371C13.2153 6.2122 13.7851 6.2122 14.1365 6.56371C14.488 6.91507 14.488 7.48491 14.1365 7.83641L9.63667 12.3365C9.28515 12.6879 8.7153 12.6879 8.3638 12.3365L3.86399 7.83641C3.51247 7.4849 3.51247 6.91506 3.86399 6.56371H3.86368Z" fill="#333333"/>
</svg>
