<svg width="21" height="18" viewBox="0 0 21 18" fill="none" xmlns="http://www.w3.org/2000/svg">
<path d="M8.99937 5.29156H12.0008C13.2874 5.29156 14.3426 6.347 14.3426 7.63354V8.72794C14.3426 8.91625 14.1896 9.06892 14.0013 9.06892H6.99883C6.81052 9.06892 6.65785 8.91625 6.65785 8.72794V7.63354C6.65785 6.34653 7.71294 5.29156 8.99966 5.29156H8.99937ZM2.34152 13.4767H5.34292C6.62959 13.4767 7.68473 14.5318 7.68473 15.8185V16.9129C7.68473 17.1012 7.53173 17.2539 7.34342 17.2539H0.340985C0.152674 17.2539 0 17.1012 0 16.9129V15.8185C0 14.5318 1.0551 13.4767 2.34181 13.4767H2.34152ZM15.6568 13.4767H18.6582C19.9449 13.4767 21 14.5318 21 15.8185V16.9129C21 17.1012 20.8473 17.2539 20.659 17.2539H13.6566C13.4683 17.2539 13.3153 17.1012 13.3153 16.9129V15.8185C13.3153 14.5318 14.3704 13.4767 15.6571 13.4767H15.6568ZM17.1573 8.1853C18.4853 8.1853 19.5619 9.26196 19.5619 10.5896C19.5619 11.9175 18.4853 12.9939 17.1573 12.9939C15.8297 12.9939 14.753 11.9174 14.753 10.5896C14.753 9.26395 15.8317 8.1853 17.1573 8.1853ZM17.1573 8.86759C16.2043 8.86759 15.4353 9.63659 15.4353 10.5896C15.4353 11.5407 16.2063 12.3116 17.1573 12.3116C18.1085 12.3116 18.8796 11.5407 18.8796 10.5896C18.8796 9.63841 18.1086 8.86759 17.1573 8.86759ZM18.6581 14.159H15.6567C14.7429 14.159 13.9974 14.9044 13.9974 15.8183V16.5714H20.3175V15.8183C20.3175 14.9045 19.572 14.159 18.6581 14.159H18.6581ZM3.8419 8.18522C5.16953 8.18522 6.24652 9.26187 6.24652 10.5895C6.24652 11.9175 5.16953 12.9938 3.8419 12.9938C2.51428 12.9938 1.43763 11.9173 1.43763 10.5895C1.43763 9.26387 2.51627 8.18522 3.8419 8.18522ZM3.8419 8.86751C2.88891 8.86751 2.11992 9.6365 2.11992 10.5895C2.11992 11.5407 2.8909 12.3115 3.8419 12.3115C4.7929 12.3115 5.56389 11.5407 5.56389 10.5895C5.56389 9.63832 4.79307 8.86751 3.8419 8.86751ZM5.34275 14.1589H2.34135C1.42748 14.1589 0.682004 14.9043 0.682004 15.8183V16.5713H7.00206V15.8183C7.00206 14.9044 6.25662 14.1589 5.34271 14.1589H5.34275ZM10.4996 0C11.8272 0 12.9039 1.07665 12.9039 2.40428C12.9039 3.7319 11.8272 4.80855 10.4996 4.80855C9.172 4.80855 8.09535 3.7319 8.09535 2.40428C8.09535 1.07865 9.17365 0 10.4996 0ZM10.4996 0.682292C9.54663 0.682292 8.77764 1.45128 8.77764 2.40428C8.77764 3.35528 9.54862 4.12626 10.4996 4.12626C11.4506 4.12626 12.2216 3.35528 12.2216 2.40428C12.2216 1.45311 11.4508 0.682292 10.4996 0.682292ZM12.0005 5.97326H8.99907C8.0852 5.97326 7.33972 6.7187 7.33972 7.63291V8.38598H13.6598V7.63291C13.6598 6.71904 12.9143 5.97326 12.0004 5.97326H12.0005Z" fill="#333333"/>
</svg>
