<svg width="23" height="23" viewBox="0 0 23 23" fill="none" xmlns="http://www.w3.org/2000/svg">
<path d="M21.6352 10.2675H15.0347V9.90082C15.0347 9.80358 14.996 9.71026 14.9273 9.64151C14.8585 9.57275 14.7652 9.53412 14.668 9.53412H7.33398C7.13148 9.53412 6.96728 9.69832 6.96728 9.90082V10.2675H0.366699C0.164197 10.2675 0 10.4317 0 10.6342C0.00114595 11.2553 0.22706 11.855 0.636338 12.3222C1.04544 12.7895 1.61004 13.0927 2.22559 13.1757C2.30122 13.7326 2.55726 14.2494 2.95471 14.6468C3.35203 15.0443 3.86882 15.3003 4.42579 15.3759C4.50879 15.9915 4.81196 16.556 5.27934 16.9652C5.74653 17.3744 6.3462 17.6003 6.96728 17.6015H5.13379C4.93129 17.6015 4.76709 17.7657 4.76709 17.9682V18.3349H1.4668C1.32797 18.3349 1.20094 18.4133 1.13873 18.5376C1.07669 18.6618 1.09011 18.8105 1.17344 18.9216L2.1085 20.1684L1.17344 21.4152C1.09011 21.5263 1.07669 21.675 1.13873 21.7992C1.20094 21.9235 1.32797 22.0019 1.4668 22.0019H5.13379C5.23103 22.0019 5.32434 21.9633 5.3931 21.8945C5.46185 21.8257 5.50049 21.7324 5.50049 21.6352V21.2685H16.5015V21.6352C16.5015 21.7324 16.5401 21.8257 16.6088 21.8945C16.6776 21.9633 16.7709 22.0019 16.8682 22.0019H20.5351C20.674 22.0019 20.801 21.9235 20.8632 21.7992C20.9253 21.675 20.9118 21.5263 20.8285 21.4152L19.8934 20.1684L20.8285 18.9216C20.9118 18.8105 20.9253 18.6618 20.8632 18.5376C20.801 18.4133 20.674 18.3349 20.5351 18.3349H17.2349V17.9682C17.2349 17.871 17.1962 17.7776 17.1275 17.7089C17.0587 17.6401 16.9654 17.6015 16.8682 17.6015H15.0347C15.6557 17.6004 16.2554 17.3744 16.7226 16.9652C17.19 16.5561 17.4932 15.9915 17.5762 15.3759C18.1331 15.3003 18.6499 15.0442 19.0472 14.6468C19.4447 14.2495 19.7008 13.7327 19.7764 13.1757C20.3919 13.0927 20.9565 12.7895 21.3656 12.3222C21.7749 11.855 22.0008 11.2553 22.0019 10.6342C22.0019 10.537 21.9633 10.4437 21.8946 10.3749C21.8258 10.3062 21.7325 10.2675 21.6352 10.2675ZM4.76709 21.2685H2.20019L2.86025 20.3884C2.95798 20.2581 2.95798 20.0787 2.86025 19.9484L2.20019 19.0683H4.76709V21.2685ZM17.2349 19.0683H19.8018L19.1417 19.9484C19.044 20.0787 19.044 20.2581 19.1417 20.3884L19.8018 21.2685H17.2349V19.0683ZM7.70068 10.2675H14.3013V17.6015H7.70068V10.2675ZM2.56689 12.4677C2.14437 12.4672 1.73493 12.321 1.40754 12.0539C1.08029 11.7867 0.855184 11.4148 0.770068 11.0009H6.96749V12.4677H2.56689ZM4.76709 14.6679C4.34457 14.6674 3.93512 14.5212 3.60773 14.2541C3.28049 13.9869 3.05538 13.615 2.97026 13.2011H6.96728V14.6679H4.76709ZM5.17046 15.4013H6.96728V16.8681C6.54476 16.8676 6.13532 16.7214 5.80793 16.4543C5.48068 16.1871 5.25557 15.8151 5.17046 15.4013ZM16.5017 18.3349V20.5351H5.5007V18.3349H16.5017ZM15.0349 16.8681V15.4013H16.8317C16.7466 15.8151 16.5215 16.1871 16.1942 16.4543C15.8668 16.7214 15.4574 16.8676 15.0349 16.8681ZM17.2351 14.6679H15.0349V13.2011H19.0319C18.9468 13.615 18.7217 13.9869 18.3944 14.2541C18.067 14.5212 17.6576 14.6674 17.2351 14.6679ZM19.4353 12.4677H15.0349V11.0009H21.2323C21.1472 11.4148 20.9221 11.7867 20.5948 12.0539C20.2674 12.321 19.858 12.4672 19.4355 12.4677H19.4353Z" fill="#333333"/>
<path d="M13.2543 13.0523L11.9768 12.866L11.331 11.5704C11.2621 11.4549 11.1373 11.384 11.0028 11.384C10.8682 11.384 10.7435 11.4549 10.6745 11.5704L10.0269 12.866L8.7494 13.0523C8.61303 13.0721 8.49926 13.1669 8.45506 13.2975C8.41102 13.4282 8.44376 13.5725 8.54002 13.6713L9.49755 14.6554L9.17554 16.0522C9.14345 16.1907 9.1942 16.3352 9.30585 16.4231C9.4175 16.511 9.56991 16.5266 9.6971 16.4629L11.001 15.8112L12.3039 16.4647C12.431 16.5284 12.5834 16.5128 12.695 16.4249C12.8067 16.337 12.8574 16.1925 12.8253 16.054L12.5045 14.6554L13.4649 13.6713C13.5612 13.5725 13.5939 13.4282 13.5499 13.2975C13.5057 13.1669 13.3919 13.0721 13.2556 13.0523H13.2543ZM11.8385 14.2864C11.7514 14.3758 11.7155 14.5034 11.7435 14.625L11.9357 15.4589L11.1656 15.0732V15.073C11.0623 15.0215 10.941 15.0215 10.8377 15.073L10.0677 15.4587L10.2599 14.6248V14.625C10.2879 14.5034 10.252 14.3758 10.1649 14.2864L9.56722 13.674L10.3222 13.564V13.5642C10.4409 13.5467 10.5437 13.4724 10.5973 13.365L11.001 12.5543L11.4043 13.3651V13.365C11.4579 13.4724 11.5607 13.5467 11.6794 13.5642L12.4344 13.6742L11.8385 14.2864Z" fill="#333333"/>
<path d="M5.86725 4.76701H7.70075V5.5004C7.70075 5.59764 7.73938 5.69096 7.80814 5.75971C7.87689 5.82847 7.9702 5.8671 8.06744 5.8671H13.9346C14.0319 5.8671 14.1252 5.82847 14.1939 5.75971C14.2627 5.69096 14.3013 5.59764 14.3013 5.5004V4.76701H16.1348C16.2912 4.76701 16.4301 4.66796 16.4812 4.52014C16.5325 4.37248 16.4843 4.20877 16.3614 4.11202L11.2276 0.0783332C11.0947 -0.0261111 10.9074 -0.0261111 10.7745 0.0783332L5.6407 4.11202C5.51776 4.20877 5.46963 4.37248 5.52087 4.52014C5.57195 4.66796 5.71093 4.76701 5.86727 4.76701H5.86725ZM11.001 0.833017L15.0743 4.03361H13.9346C13.7321 4.03361 13.5679 4.19781 13.5679 4.40031V5.13371H8.43414V4.40031C8.43414 4.30307 8.39551 4.20975 8.32675 4.141C8.258 4.07224 8.16468 4.03361 8.06744 4.03361H6.92774L11.001 0.833017Z" fill="#333333"/>
<path d="M16.8682 6.6005C17.1599 6.6005 17.4398 6.71641 17.6461 6.92267C17.8523 7.12894 17.9682 7.4089 17.9682 7.70058C17.9682 7.90308 18.1324 8.06728 18.3349 8.06728C18.5374 8.06728 18.7016 7.90308 18.7016 7.70058C18.7016 7.40886 18.8175 7.12891 19.0238 6.92267C19.2301 6.71644 19.51 6.6005 19.8017 6.6005C20.0042 6.6005 20.1684 6.43631 20.1684 6.2338C20.1684 6.0313 20.0042 5.8671 19.8017 5.8671C19.51 5.8671 19.23 5.7512 19.0238 5.54493C18.8176 5.33866 18.7016 5.05871 18.7016 4.76703C18.7016 4.56453 18.5374 4.40033 18.3349 4.40033C18.1324 4.40033 17.9682 4.56453 17.9682 4.76703C17.9682 5.05875 17.8523 5.3387 17.6461 5.54493C17.4398 5.75117 17.1598 5.8671 16.8682 5.8671C16.6657 5.8671 16.5015 6.0313 16.5015 6.2338C16.5015 6.43631 16.6657 6.6005 16.8682 6.6005ZM18.335 5.85579C18.4419 5.99952 18.5692 6.12689 18.713 6.23378C18.5692 6.34068 18.4419 6.46804 18.335 6.61178C18.2281 6.46804 18.1007 6.34068 17.957 6.23378C18.1007 6.12688 18.2281 5.99952 18.335 5.85579Z" fill="#333333"/>
<path d="M1.1001 4.03361C1.39182 4.03361 1.67177 4.14951 1.878 4.35578C2.08423 4.56205 2.20017 4.842 2.20017 5.13368C2.20017 5.33619 2.36437 5.50038 2.56687 5.50038C2.76937 5.50038 2.93357 5.33619 2.93357 5.13368C2.93357 4.84196 3.04947 4.56201 3.25574 4.35578C3.46201 4.14955 3.74197 4.03361 4.03365 4.03361C4.23615 4.03361 4.40035 3.86941 4.40035 3.66691C4.40035 3.46441 4.23615 3.30021 4.03365 3.30021C3.74193 3.30021 3.46197 3.18431 3.25574 2.97804C3.04951 2.77177 2.93357 2.49182 2.93357 2.20013C2.93357 1.99763 2.76937 1.83344 2.56687 1.83344C2.36437 1.83344 2.20017 1.99763 2.20017 2.20013C2.20017 2.49185 2.08427 2.77181 1.878 2.97804C1.67173 3.18427 1.39178 3.30021 1.1001 3.30021C0.897596 3.30021 0.733398 3.46441 0.733398 3.66691C0.733398 3.86941 0.897596 4.03361 1.1001 4.03361ZM2.56689 3.2889C2.67379 3.43263 2.80115 3.55999 2.94489 3.66689C2.80115 3.77379 2.67379 3.90115 2.56689 4.04488C2.45999 3.90115 2.33263 3.77378 2.1889 3.66689C2.33263 3.55999 2.46 3.43263 2.56689 3.2889Z" fill="#333333"/>
<path d="M13.9346 6.60052H8.06738C7.86488 6.60052 7.70068 6.76472 7.70068 6.96722V8.43402C7.70068 8.53126 7.73932 8.62457 7.80807 8.69333C7.87683 8.76208 7.97014 8.80072 8.06738 8.80072H13.9346C14.0318 8.80072 14.1251 8.76208 14.1939 8.69333C14.2626 8.62457 14.3013 8.53126 14.3013 8.43402V6.96722C14.3013 6.86998 14.2626 6.77667 14.1939 6.70792C14.1251 6.63916 14.0318 6.60052 13.9346 6.60052ZM13.5679 8.06732H8.43408V7.33392H13.5679V8.06732Z" fill="#333333"/>
</svg>
