<svg width="18" height="18" viewBox="0 0 18 18" fill="none" xmlns="http://www.w3.org/2000/svg">
<path d="M16.5798 9.45339C16.6045 9.65624 16.5493 9.84213 16.4205 9.99117C16.3027 10.1275 16.1236 10.2262 15.9175 10.2733V10.3172C15.9175 10.4725 15.7917 10.5984 15.6364 10.5984C15.4811 10.5984 15.3552 10.4725 15.3552 10.3172V10.2684C15.0259 10.1825 14.7756 9.94785 14.6958 9.62786C14.6582 9.47709 14.75 9.32458 14.9007 9.28695C15.0516 9.24932 15.2039 9.34114 15.2416 9.49179C15.289 9.68258 15.4956 9.74604 15.6571 9.74154C15.799 9.73823 15.9381 9.68947 15.9952 9.62296C16.0128 9.60255 16.0282 9.57605 16.0216 9.5208C16.0148 9.46555 15.9992 9.33624 15.5928 9.26946C14.8916 9.15432 14.7683 8.75261 14.757 8.52339C14.7393 8.15612 14.9772 7.84674 15.3551 7.7361V7.68191C15.3551 7.52663 15.481 7.40075 15.6363 7.40075C15.7916 7.40075 15.9174 7.52662 15.9174 7.68191V7.73358C16.1604 7.80208 16.3863 7.96704 16.5085 8.25813C16.5686 8.40136 16.5013 8.56618 16.3581 8.62632C16.215 8.68647 16.0501 8.61916 15.9899 8.47594C15.8965 8.25335 15.6635 8.24102 15.5406 8.26898C15.4866 8.2813 15.3108 8.3339 15.3186 8.49634C15.3206 8.53596 15.3263 8.65599 15.6836 8.71456C16.2298 8.80452 16.531 9.05282 16.5798 9.45334L16.5798 9.45339ZM17.9995 8.99986C17.9995 10.3029 16.9395 11.363 15.6364 11.363C15.592 11.363 15.5479 11.3617 15.5041 11.3591C14.9885 12.7791 14.0115 14.0038 12.7328 14.8249C12.6857 14.8551 12.633 14.8695 12.581 14.8695C12.4884 14.8695 12.3978 14.8238 12.3441 14.7401C12.2603 14.6093 12.298 14.4353 12.4288 14.3515C13.5763 13.6147 14.4597 12.5242 14.9414 11.2585C13.9765 10.9612 13.273 10.061 13.273 8.99972C13.273 7.93858 13.9761 7.03882 14.9408 6.74122C14.2971 5.04953 12.9501 3.70245 11.2585 3.05901C10.961 4.02369 10.0611 4.72672 9.00004 4.72672C7.9389 4.72672 7.03914 4.02369 6.74154 3.05901C5.04985 3.70279 3.70277 5.04987 3.05933 6.74122C4.02401 7.0388 4.72704 7.93871 4.72704 8.99972C4.72704 10.061 4.02364 10.961 3.05866 11.2585C3.5404 12.5242 4.42374 13.6147 5.57128 14.3515C5.70205 14.4353 5.73981 14.6093 5.65594 14.7401C5.60215 14.8238 5.51152 14.8695 5.41904 14.8695C5.36697 14.8695 5.31437 14.8551 5.26733 14.8249C3.98864 14.0038 3.01161 12.7792 2.49595 11.3591C2.45222 11.3615 2.4081 11.363 2.36358 11.363C1.06023 11.363 0 10.3029 0 8.99986C0 7.69678 1.06009 6.63669 2.36318 6.63669C2.4077 6.63669 2.45182 6.63828 2.49581 6.64066C3.19314 4.71948 4.71934 3.19317 6.64066 2.49581C6.63828 2.45182 6.63669 2.4077 6.63669 2.36318C6.63669 1.06009 7.69678 0 8.99987 0C10.303 0 11.363 1.06009 11.363 2.36318C11.363 2.4077 11.3617 2.45182 11.3591 2.49554C13.2803 3.19287 14.8066 4.71931 15.5039 6.64039C15.5479 6.63801 15.592 6.63642 15.6366 6.63642C16.9398 6.63668 18 7.69678 18 8.99987L17.9995 8.99986ZM2.36307 7.19913C1.37017 7.19913 0.562326 8.00693 0.562326 8.99986C0.562326 9.9928 1.37013 10.8006 2.36307 10.8006C3.35597 10.8006 4.16381 9.9928 4.16381 8.99986C4.16367 8.00696 3.35614 7.19913 2.36307 7.19913ZM10.8003 2.36335C10.8003 1.37045 9.99252 0.562608 8.99958 0.562608C8.00665 0.562608 7.19884 1.37041 7.19884 2.36335C7.19884 3.35625 8.00665 4.16409 8.99958 4.16409C9.99248 4.16396 10.8003 3.35642 10.8003 2.36335ZM17.4368 8.99986C17.4368 8.00696 16.629 7.19913 15.6361 7.19913C14.6433 7.19913 13.8355 8.00693 13.8355 8.99986C13.8355 9.9928 14.6433 10.8006 15.6362 10.8006C16.629 10.8006 17.4368 9.9928 17.4368 8.99986ZM2.08188 7.68233V7.73652C1.70399 7.84689 1.46592 8.15654 1.48379 8.52381C1.49492 8.75315 1.61827 9.15476 2.31931 9.26988C2.72566 9.33652 2.74129 9.46597 2.74808 9.52122C2.75483 9.57648 2.73933 9.60297 2.72171 9.62338C2.66434 9.68962 2.52522 9.73851 2.38332 9.74196C2.22128 9.74646 2.01523 9.68274 1.96781 9.49221C1.93019 9.34143 1.77782 9.24961 1.6269 9.28737C1.47612 9.325 1.38457 9.4775 1.42206 9.62829C1.50182 9.94826 1.75211 10.1829 2.08174 10.2688V10.3177C2.08174 10.4729 2.20761 10.5988 2.3629 10.5988C2.51818 10.5988 2.64405 10.4729 2.64405 10.3177V10.2737C2.85008 10.2266 3.0291 10.1277 3.147 9.99159C3.27578 9.84267 3.33103 9.65664 3.30626 9.45381C3.25763 9.05327 2.95622 8.80498 2.41033 8.71517C2.053 8.6566 2.0473 8.5363 2.0453 8.49695C2.03735 8.33451 2.21304 8.28191 2.26736 8.26959C2.39018 8.24163 2.6231 8.25395 2.71651 8.47655C2.77666 8.61977 2.94149 8.68708 3.0847 8.62693C3.22793 8.56678 3.29523 8.40195 3.23508 8.25874C3.11278 7.96765 2.88701 7.8027 2.64401 7.73419V7.68252C2.64401 7.52723 2.51814 7.40136 2.36286 7.40136C2.20757 7.40136 2.08184 7.5271 2.08184 7.68238L2.08188 7.68233ZM9.04707 2.0783C8.68974 2.01947 8.68404 1.89943 8.68204 1.86008C8.67409 1.69764 8.85004 1.64504 8.9041 1.63272C9.02692 1.60476 9.25984 1.61708 9.35325 1.83968C9.4134 1.9829 9.57822 2.05021 9.72144 1.99006C9.86466 1.92991 9.93197 1.76508 9.87182 1.62187C9.74979 1.33078 9.52375 1.16583 9.28075 1.09732V1.04591C9.28075 0.890629 9.15488 0.764757 8.9996 0.764757C8.84431 0.764757 8.71844 0.890625 8.71844 1.04591V1.1001C8.34055 1.21047 8.10248 1.52012 8.12035 1.88739C8.13148 2.11647 8.25483 2.51834 8.95614 2.63346C9.36249 2.70011 9.37813 2.82955 9.38491 2.88481C9.39169 2.94006 9.37617 2.96656 9.35854 2.98696C9.30117 3.05321 9.16205 3.1021 9.02015 3.10554C8.85824 3.11084 8.65206 3.04632 8.60465 2.85579C8.56702 2.70501 8.41425 2.61359 8.26373 2.65095C8.11295 2.68858 8.0214 2.84108 8.05889 2.99187C8.13866 3.31184 8.38894 3.5465 8.71858 3.63235V3.68124C8.71858 3.83653 8.84445 3.9624 8.99973 3.9624C9.15502 3.9624 9.28088 3.83653 9.28088 3.68124V3.63725C9.48691 3.59022 9.66593 3.49124 9.78383 3.35517C9.91262 3.20625 9.96787 3.02023 9.94309 2.81739C9.89446 2.41634 9.59305 2.16802 9.04703 2.07834L9.04707 2.0783ZM11.7382 9.38064V12.3012C11.7382 12.9117 11.2917 13.4234 10.697 13.5483V17.7182C10.697 17.8735 10.5712 17.9994 10.4159 17.9994L7.58354 17.9995C7.50895 17.9995 7.43754 17.9698 7.38467 17.9172C7.3318 17.8643 7.30239 17.7929 7.30239 17.7183V13.5484C6.7079 13.4236 6.26126 12.9119 6.26126 12.3013V9.38063C6.26126 8.7799 6.7177 8.31817 7.51374 8.11333C7.73646 8.05596 7.96092 8.01263 8.18641 7.9815C7.84645 7.66855 7.62543 7.16494 7.62543 6.59786C7.62543 6.0288 7.84802 5.70112 8.03456 5.52623C8.27715 5.29914 8.6109 5.17924 8.99964 5.17924C9.38839 5.17924 9.72228 5.29929 9.96473 5.52623C10.1513 5.70099 10.3739 6.02877 10.3739 6.59786C10.3739 7.16627 10.1517 7.6708 9.81037 7.9836C10.0343 8.01421 10.2587 8.05687 10.4833 8.11265C11.2808 8.31087 11.7382 8.77288 11.7382 9.38063L11.7382 9.38064ZM8.18791 6.59812C8.18791 7.22429 8.55969 7.75346 8.99972 7.75346C9.43974 7.75346 9.81153 7.2244 9.81153 6.59812C9.81153 5.89061 9.37004 5.74195 8.99972 5.74195C8.62926 5.74208 8.18791 5.89061 8.18791 6.59812ZM11.1758 9.38064C11.1758 8.93135 10.6572 8.7354 10.3481 8.65881C9.43734 8.43291 8.53083 8.43264 7.65383 8.65828C7.27516 8.75567 6.82374 8.95997 6.82374 9.38065V12.3012C6.82374 12.6013 7.02222 12.8588 7.3023 12.9638L7.30243 10.3525C7.30243 10.1972 7.4283 10.0713 7.58358 10.0713C7.73887 10.0713 7.86474 10.1972 7.86474 10.3525V17.4374H8.7572L8.75734 14.4233C8.75734 14.268 8.88321 14.1421 9.03849 14.1421C9.19378 14.1421 9.31965 14.268 9.31965 14.4233V17.4373H10.1342V10.3527C10.1342 10.1974 10.2601 10.0715 10.4154 10.0715C10.5707 10.0715 10.6965 10.1974 10.6965 10.3527V12.9643C10.9768 12.8591 11.1751 12.6018 11.1751 12.3017V9.38085L11.1758 9.38064Z" fill="#333333"/>
</svg>
