<svg width="20" height="20" viewBox="0 0 20 20" fill="none" xmlns="http://www.w3.org/2000/svg">
<path d="M19.1769 0.509324L18.8628 0.195199C18.7382 0.0697473 18.5685 -0.000562717 18.3917 3.39227e-06H18.391C18.2145 -0.000421879 18.045 0.0698889 17.9207 0.195199L17.4492 0.666231C17.2791 0.832649 17.2136 1.07902 17.2788 1.30797L14.3869 4.19988C12.5988 5.9881 11.3673 6.66329 10.9281 6.86869L10.8537 6.79427C10.4606 6.41265 9.83561 6.41196 9.44169 6.79271L0.490629 15.7434C0.176786 16.0547 0.000145242 16.4784 8.54289e-08 16.9204C-0.000141696 17.3624 0.176202 17.7862 0.489903 18.0977L1.90148 19.5092C2.21277 19.8232 2.63633 19.9999 3.07847 20C3.52048 20.0001 3.9443 19.8238 4.25573 19.5101L4.6691 19.0966C5.11563 19.7733 5.92702 20.1131 6.72255 19.9564C7.51808 19.7998 8.14007 19.1779 8.29673 18.3822C8.45351 17.5867 8.11373 16.7755 7.43701 16.3288L13.2062 10.5599C13.3955 10.3738 13.5024 10.1196 13.5025 9.85412C13.5028 9.58862 13.3965 9.33417 13.2075 9.14776L13.1307 9.07093C13.3327 8.63419 13.9989 7.41466 15.8005 5.61298L18.6928 2.72063C18.9215 2.78584 19.1676 2.72063 19.334 2.55052L19.805 2.07949C20.065 1.81923 20.065 1.39766 19.805 1.13739L19.1769 0.509324ZM11.9873 8.86996L8.98833 11.012L11.1305 8.01318L11.9873 8.86996ZM12.6348 8.57242L11.4279 7.36552C12.4124 6.81607 13.3225 6.14276 14.1356 5.36182L14.6386 5.8646C13.8576 6.67784 13.1842 7.58775 12.6348 8.57239L12.6348 8.57242ZM5.00324 17.9952C5.00438 17.7581 5.06972 17.5256 5.19206 17.3225L7.00851 19.1389C6.80537 19.2613 6.57289 19.3266 6.33574 19.3277C5.60016 19.327 5.00397 18.7308 5.00324 17.9952L5.00324 17.9952ZM7.47954 18.6679L5.66309 16.8514C5.86622 16.7291 6.09855 16.6639 6.3357 16.6626C7.07139 16.6634 7.66748 17.2595 7.66835 17.9952C7.66707 18.2324 7.60187 18.4647 7.47953 18.6679L7.47954 18.6679ZM12.7364 10.0873L6.77662 16.0471C6.10741 15.8933 5.40612 16.0947 4.9205 16.5802C4.43499 17.0657 4.2334 17.7669 4.38723 18.4362L3.78364 19.0398C3.39012 19.4196 2.76656 19.4193 2.37363 19.0389L0.960348 17.6257C0.771957 17.4394 0.666065 17.1854 0.666207 16.9204C0.666349 16.6555 0.772523 16.4016 0.961056 16.2153L9.9143 7.26208C10.044 7.1345 10.2521 7.13521 10.3808 7.26364L10.6525 7.53538L7.30019 12.2286L2.60801 16.9205C2.52395 17.0047 2.49106 17.1273 2.52182 17.2422C2.55258 17.3572 2.64246 17.4469 2.75742 17.4777C2.87238 17.5086 2.995 17.4757 3.0792 17.3915L7.77102 12.6997L12.4646 9.3475L12.7375 9.62037C12.8007 9.68161 12.8363 9.76609 12.836 9.85412C12.8358 9.94215 12.7997 10.0264 12.7362 10.0873L12.7364 10.0873ZM15.3292 5.14183C15.2477 5.22334 15.1737 5.30102 15.0966 5.38041L14.6194 4.90328C14.6987 4.82616 14.7764 4.75217 14.8579 4.67066L17.6847 1.84381L18.156 2.31499L15.3292 5.14183ZM18.8631 2.07965L18.8627 2.07937L17.9202 1.13727L18.3916 0.665947L18.7056 0.980073L18.8627 1.13728L19.0983 1.37273L19.0984 1.37287L19.3337 1.60833L18.8631 2.07965Z" fill="#333333"/>
</svg>
