<svg width="20" height="22" viewBox="0 0 20 22" fill="none" xmlns="http://www.w3.org/2000/svg">
<path d="M11.9263 16.2493L12.1881 15.8233L11.5811 16.611L11.9263 16.2493ZM14.1378 17.2079L14.1176 16.7083L14.1174 16.7083L14.1378 17.2079ZM18.3455 14.7575L17.9189 14.4967L17.9189 14.4968L18.3455 14.7575ZM17.4079 8.24042L17.0463 8.58569L17.0578 8.59779L17.0702 8.60908L17.4079 8.24042ZM10.7385 1.25503L11.1002 0.909754L11.0875 0.896474L11.0739 0.884161L10.7385 1.25503ZM9.40983 1.25503L9.07447 0.884176L9.0622 0.895271L9.05069 0.907152L9.40983 1.25503ZM2.64335 8.24042L2.98109 8.6091L2.9921 8.59902L3.00249 8.5883L2.64335 8.24042ZM1.70472 14.5488L2.14402 14.3101L2.14399 14.31L1.70472 14.5488ZM5.92678 17.2087L5.90782 17.7084L5.90786 17.7084L5.92678 17.2087ZM8.21166 16.2521L8.55052 16.6197L8.55076 16.6195L8.21166 16.2521ZM8.67717 16.4504H8.17717V16.4506L8.67717 16.4504ZM8.67761 17.6219H9.17761L9.17761 17.6217L8.67761 17.6219ZM8.19278 19.4233L7.76003 19.1729L7.76002 19.1729L8.19278 19.4233ZM7.57893 20.4842L7.14616 20.2337L7.14582 20.2343L7.57893 20.4842ZM12.5697 20.4842L13.0025 20.2339L13.0024 20.2337L12.5697 20.4842ZM11.9557 19.4233L11.5229 19.6737L11.5229 19.6738L11.9557 19.4233ZM11.9264 16.2494L11.6646 16.6753L12.2713 15.8874L11.9264 16.2494ZM17.8667 10.456C17.7574 10.2024 17.4632 10.0855 17.2096 10.1949C16.956 10.3042 16.8391 10.5984 16.9485 10.852L17.8667 10.456ZM17.1495 14.0449L16.7229 13.7841L16.7228 13.7843L17.1495 14.0449ZM15.5152 15.4826L15.3063 15.0283L15.3063 15.0283L15.5152 15.4826ZM14.0598 15.3303C13.7839 15.3415 13.5694 15.5743 13.5806 15.8502C13.5918 16.1261 13.8246 16.3407 14.1005 16.3294L14.0598 15.3303ZM11.5811 16.611C11.8935 16.9091 12.2076 17.217 12.6093 17.4242C13.0316 17.6421 13.5131 17.7338 14.1581 17.7075L14.1174 16.7083C13.594 16.7297 13.2959 16.6533 13.0677 16.5355C12.8188 16.4071 12.6113 16.2119 12.2715 15.8875L11.5811 16.611ZM14.158 17.7075C16.0419 17.6313 17.7934 16.6197 18.7722 15.0182L17.9189 14.4968C17.118 15.8073 15.6748 16.6454 14.1176 16.7083L14.158 17.7075ZM18.7721 15.0183C20.4546 12.2658 19.5193 9.49673 17.7457 7.87175L17.0702 8.60908C18.5622 9.97606 19.3049 12.2294 17.9189 14.4967L18.7721 15.0183ZM17.7696 7.89514L11.1002 0.909754L10.3769 1.60031L17.0463 8.58569L17.7696 7.89514ZM11.0739 0.884161C10.5074 0.371955 9.64094 0.371933 9.07447 0.884176L9.74519 1.62589C9.9308 1.45804 10.2175 1.45802 10.4032 1.62591L11.0739 0.884161ZM9.05069 0.907152L2.28422 7.89253L3.00249 8.5883L9.76897 1.60291L9.05069 0.907152ZM2.30561 7.87173C0.559801 9.47099 -0.177664 12.1335 1.26545 14.7877L2.14399 14.31C0.93437 12.0852 1.55181 9.91841 2.98109 8.6091L2.30561 7.87173ZM1.26542 14.7876C2.18749 16.484 3.94454 17.6338 5.90782 17.7084L5.94575 16.7091C4.35181 16.6486 2.90568 15.7113 2.14402 14.3101L1.26542 14.7876ZM5.90786 17.7084C6.54889 17.7326 7.03833 17.6396 7.47148 17.428C7.88889 17.2241 8.22035 16.9241 8.55052 16.6197L7.87279 15.8844C7.53212 16.1984 7.30029 16.3987 7.03254 16.5295C6.78054 16.6526 6.46297 16.7287 5.94571 16.7091L5.90786 17.7084ZM8.55076 16.6195C8.41999 16.7402 8.17717 16.6654 8.17717 16.4504H9.17717C9.17717 15.7582 8.35615 15.4383 7.87256 15.8846L8.55076 16.6195ZM8.17717 16.4506L8.17761 17.6221L9.17761 17.6217L9.17717 16.4502L8.17717 16.4506ZM8.17761 17.6219C8.17761 18.1653 8.03369 18.7 7.76003 19.1729L8.62554 19.6738C8.98683 19.0495 9.17761 18.3421 9.17761 17.6219H8.17761ZM7.76002 19.1729L7.14616 20.2337L8.0117 20.7346L8.62555 19.6737L7.76002 19.1729ZM7.14582 20.2343C6.81566 20.8067 7.23971 21.5 7.88235 21.5V20.5C7.98858 20.5 8.07677 20.6218 8.01203 20.734L7.14582 20.2343ZM7.88235 21.5H12.2661V20.5H7.88235V21.5ZM12.2661 21.5C12.9076 21.5 13.3341 20.8074 13.0025 20.2339L12.1368 20.7344C12.0713 20.621 12.161 20.5 12.2661 20.5V21.5ZM13.0024 20.2337L12.3884 19.1729L11.5229 19.6738L12.1369 20.7346L13.0024 20.2337ZM12.3884 19.1729C12.1149 18.7002 11.9713 18.1655 11.9713 17.6219H10.9713C10.9713 18.3419 11.1615 19.0493 11.5229 19.6737L12.3884 19.1729ZM11.9713 17.6219V16.4383H10.9713V17.6219H11.9713ZM11.9713 16.4383C11.9713 16.5466 11.8987 16.6275 11.8264 16.6575C11.7551 16.687 11.654 16.6804 11.5815 16.6114L12.2713 15.8874C11.7978 15.4361 10.9713 15.7448 10.9713 16.4383H11.9713ZM12.1883 15.8234L12.1881 15.8233L11.6644 16.6752L11.6646 16.6753L12.1883 15.8234ZM16.9485 10.852C17.3085 11.6867 17.389 12.6945 16.7229 13.7841L17.5761 14.3057C18.4377 12.8963 18.3342 11.5399 17.8667 10.456L16.9485 10.852ZM16.7228 13.7843C16.3922 14.3254 15.8923 14.7589 15.3063 15.0283L15.724 15.9369C16.4806 15.5891 17.1365 15.0252 17.5762 14.3056L16.7228 13.7843ZM15.3063 15.0283C14.9166 15.2075 14.4926 15.3126 14.0598 15.3303L14.1005 16.3294C14.668 16.3063 15.2198 16.1687 15.724 15.9369L15.3063 15.0283Z" fill="#333333"/>
</svg>
