<svg width="18" height="20" viewBox="0 0 18 20" fill="none" xmlns="http://www.w3.org/2000/svg">
<path fill-rule="evenodd" clip-rule="evenodd" d="M9.94296 0.0979121C10.633 0.196777 11.1944 0.342719 11.1944 0.342719H11.1943C11.3098 0.373077 11.4034 0.458303 11.4441 0.570807C11.485 0.683469 11.4681 0.808961 11.3988 0.906525C11.3988 0.906525 11.0629 1.37992 10.5977 1.9002C10.1327 2.42035 9.5639 3.00101 8.93013 3.23266C8.29585 3.46416 7.48678 3.38559 6.79665 3.28656C6.10657 3.1877 5.54536 3.04175 5.54536 3.04175C5.42977 3.01156 5.33626 2.92633 5.29552 2.81367C5.25461 2.70116 5.27149 2.57567 5.34081 2.47795C5.34081 2.47795 5.67669 2.00455 6.14194 1.48427C6.60719 0.963955 7.17522 0.381672 7.80949 0.150314C8.44376 -0.0810201 9.25283 -0.00114789 9.94296 0.0978788L9.94296 0.0979121ZM9.84069 0.819666C9.19507 0.727131 8.41987 0.705217 8.05951 0.836387C7.69912 0.967884 7.11841 1.48413 6.6832 1.97115C6.45999 2.22083 6.43206 2.27522 6.2983 2.44813C6.51161 2.49391 6.56811 2.51728 6.89911 2.56485C7.54473 2.65738 8.31993 2.6793 8.68029 2.54813C9.04068 2.41663 9.62139 1.90039 10.0566 1.41336C10.2798 1.16368 10.3077 1.1093 10.4415 0.936389C10.2282 0.890608 10.1717 0.867231 9.84069 0.819666Z" fill="#333333"/>
<path fill-rule="evenodd" clip-rule="evenodd" d="M1.76416 0.338524C2.38592 0.25005 3.11304 0.177159 3.69598 0.388038C4.27877 0.599241 4.78936 1.12085 5.20865 1.5866C5.62798 2.05235 5.93169 2.47638 5.93169 2.47638C6.0015 2.57411 6.01887 2.70008 5.97796 2.81307C5.93705 2.92606 5.84322 3.01161 5.72714 3.04164C5.72714 3.04164 5.22112 3.17249 4.59936 3.2608C3.97759 3.34928 3.25048 3.42217 2.66753 3.21129C2.08458 3.00008 1.57416 2.47848 1.15487 2.01256C0.735538 1.54681 0.431825 1.12278 0.431825 1.12278V1.12295C0.362018 1.02522 0.344647 0.899242 0.385558 0.786252C0.426468 0.673261 0.520298 0.587874 0.636373 0.557678C0.636373 0.557678 1.1424 0.426833 1.76416 0.338358V0.338524ZM1.86643 1.06028C1.6049 1.09729 1.57584 1.11418 1.39208 1.15281C1.50799 1.2994 1.51935 1.32976 1.69467 1.52441C2.08397 1.95687 2.60461 2.41435 2.91481 2.52669C3.22504 2.63902 3.91953 2.62166 4.49712 2.53902C4.75849 2.50201 4.78771 2.48659 4.97148 2.44795C4.85556 2.3012 4.84436 2.26986 4.66888 2.07489C4.27959 1.6426 3.75894 1.18657 3.44875 1.07424C3.13852 0.961738 2.44402 0.977808 1.86643 1.05963V1.06028Z" fill="#333333"/>
<path d="M5.09103 9.79559C7.89838 9.79559 10.182 12.0844 10.182 14.8978C10.182 17.7115 7.89855 20 5.09103 20C2.28369 20 6.19888e-05 17.7113 6.19888e-05 14.8978C6.19888e-05 12.0843 2.28352 9.79559 5.09103 9.79559ZM5.09103 10.5245C2.67687 10.5245 0.727344 12.4783 0.727344 14.8977C0.727344 17.3174 2.67671 19.271 5.09103 19.271C7.50536 19.271 9.45473 17.3172 9.45473 14.8977C9.45473 12.4781 7.50536 10.5245 5.09103 10.5245Z" fill="#333333"/>
<path d="M13.0184 7.61047C15.2439 7.65852 17.1838 9.15401 17.801 11.2977C18.418 13.4414 17.5709 15.7424 15.713 16.9709C13.855 18.1997 11.4112 18.0751 9.68776 16.6634C9.61227 16.6026 9.56405 16.5139 9.55399 16.4172C9.54392 16.3206 9.57266 16.224 9.63402 16.1487C9.69522 16.0733 9.78402 16.0258 9.88045 16.0162C9.97704 16.0068 10.0733 16.0363 10.148 16.0983C11.6276 17.3102 13.7177 17.4178 15.3125 16.3631C16.9075 15.3084 17.6319 13.34 17.1023 11.4999C16.5728 9.65979 14.9133 8.38069 13.0029 8.33946C11.0925 8.29806 9.3811 9.5049 8.7726 11.3205C8.70831 11.5111 8.5023 11.6135 8.31204 11.5495C8.12178 11.4856 8.01902 11.2794 8.08233 11.0885C8.79095 8.97335 10.7928 7.56246 13.0183 7.6105L13.0184 7.61047Z" fill="#333333"/>
<path fill-rule="evenodd" clip-rule="evenodd" d="M5.63379 2.14369C5.80116 2.14239 5.94775 2.25586 5.98899 2.41837L6.30571 3.68966C6.78851 5.62522 7.89194 7.3478 9.44633 8.59403L11.5003 10.2413C11.5808 10.2999 11.6337 10.389 11.647 10.4877C11.6603 10.5866 11.6326 10.6866 11.5702 10.7644C11.508 10.8421 11.4166 10.891 11.3176 10.8994C11.2184 10.908 11.1202 10.8754 11.0457 10.8093L8.99177 9.16351C7.31316 7.81754 6.12258 5.95649 5.60114 3.8664L5.52306 3.55033L5.11818 4.36039C4.17305 6.2549 3.91721 8.41954 4.39235 10.4837L4.71768 11.9016C4.74609 11.9978 4.73359 12.1017 4.6831 12.1886C4.63245 12.2754 4.54852 12.3374 4.4508 12.3602C4.35307 12.3827 4.25031 12.3639 4.16703 12.3081C4.08359 12.2522 4.02693 12.1644 4.01021 12.0652L3.68358 10.6473C3.17041 8.41856 3.44835 6.08041 4.46913 4.03446L5.31153 2.34468L5.31137 2.34451C5.37273 2.22227 5.49725 2.14483 5.63377 2.14386L5.63379 2.14369Z" fill="#333333"/>
<path d="M13.2569 9.85963C13.4301 9.86547 13.5751 9.99307 13.6035 10.1643C13.7128 10.7614 13.5462 11.3762 13.1504 11.8356C12.7547 12.2951 12.1719 12.5502 11.5667 12.529C11.3659 12.522 11.2087 12.353 11.2159 12.1517C11.2228 11.9504 11.3914 11.793 11.5923 11.8001C11.9779 11.8139 12.3472 11.6516 12.5995 11.3589C12.8516 11.0662 12.9574 10.6757 12.8878 10.2954H12.8876C12.8659 10.1861 12.8952 10.0728 12.9672 9.98807C13.0391 9.90316 13.1459 9.85576 13.2569 9.85966L13.2569 9.85963Z" fill="#333333"/>
<path d="M5.96453 12.132C6.09277 12.1346 6.21015 12.2049 6.27346 12.3168C6.33661 12.4286 6.33645 12.5656 6.27281 12.6772C5.96794 13.229 5.43918 13.6231 4.82394 13.7563C4.20866 13.8894 3.56612 13.7489 3.06126 13.3733C2.98252 13.316 2.92992 13.2296 2.91532 13.1332C2.9007 13.0368 2.92506 12.9386 2.98317 12.8605C3.04129 12.7822 3.12814 12.7306 3.22441 12.7171C3.32084 12.7035 3.41857 12.7291 3.49584 12.7884C3.8327 13.0397 4.26015 13.1321 4.67054 13.0431C5.0811 12.9543 5.43307 12.6924 5.63646 12.3243V12.3241C5.70107 12.2033 5.82786 12.1291 5.96455 12.132L5.96453 12.132Z" fill="#333333"/>
</svg>
