<svg width="19" height="18" viewBox="0 0 19 18" fill="none" xmlns="http://www.w3.org/2000/svg">
<path d="M8.74565 0C8.10371 0 7.57248 0.525545 7.57248 1.16627V10.819L5.95339 9.43316L6.76974 7.16923C6.8241 7.02926 6.80312 6.87123 6.71415 6.75039C6.62518 6.62942 6.48047 6.56234 6.3307 6.57245C6.15506 6.58485 6.00392 6.70092 5.94649 6.86738L5.02724 9.42638C4.96705 9.59789 5.01897 9.78885 5.15755 9.90661L7.57249 11.9784V14.4481C7.57249 15.0888 8.10952 15.6075 8.74566 15.6075H10.3921L4.72547 17.11C4.55794 17.1544 4.39837 17.0645 4.35504 16.9042L0.89054 4.07528C0.84659 3.91281 0.929283 3.76962 1.09635 3.72537L5.89157 2.4493C6.1303 2.40565 6.28849 2.17687 6.24485 1.93814C6.20136 1.69956 5.97242 1.54137 5.73385 1.58486C5.71057 1.58762 5.6876 1.59221 5.66524 1.59864L0.869633 2.87471C0.249611 3.03918 -0.127436 3.68432 0.0396436 4.3016L3.51088 17.1376C3.67841 17.7569 4.32511 18.1253 4.94482 17.9608L13.1773 15.7724C13.3136 15.7364 13.4388 15.6824 13.5477 15.6076H17.266C17.9021 15.6076 18.4391 15.089 18.4391 14.4483V1.16655C18.4391 0.52583 17.9079 0.000284583 17.266 0.000284583L8.74565 0ZM8.74565 0.878209H17.2663C17.4393 0.878209 17.5613 0.999951 17.5613 1.16625V14.448C17.5613 14.6144 17.4451 14.7293 17.2663 14.7293H8.74565C8.56679 14.7293 8.45056 14.6144 8.45056 14.448V1.16625C8.45056 0.999951 8.57261 0.878209 8.74565 0.878209ZM9.82265 1.63285C9.48285 1.63285 9.21212 1.9088 9.21212 2.25029C9.21212 2.59177 9.48285 2.86772 9.82265 2.86772C10.1626 2.86772 10.4401 2.59177 10.4401 2.25029C10.4401 1.9088 10.1626 1.63285 9.82265 1.63285ZM2.33816 4.21914C2.29727 4.22159 2.25562 4.22879 2.21458 4.23981C1.88626 4.32817 1.69437 4.66461 1.78246 4.99446C1.87036 5.32431 2.20878 5.52184 2.5371 5.43348C2.86542 5.34512 3.05731 5.00179 2.96923 4.67194C2.89235 4.38328 2.62376 4.20198 2.33815 4.21911L2.33816 4.21914ZM13.0059 4.48682C12.0454 4.48682 11.2565 5.28145 11.2565 6.24296C11.2565 6.31263 11.2894 6.36807 11.2975 6.43514C10.587 6.65795 10.0559 7.29975 10.0559 8.08163C10.0559 9.04331 10.8448 9.83793 11.8053 9.83793C12.0811 9.83793 12.3379 9.76489 12.5667 9.64575V10.6817C12.5652 10.7992 12.6106 10.9125 12.6932 10.9962C12.7757 11.0799 12.8883 11.127 13.0059 11.127C13.1233 11.127 13.236 11.0799 13.3186 10.9962C13.401 10.9125 13.4466 10.7992 13.4449 10.6817V9.64575C13.6737 9.76489 13.9305 9.83793 14.2065 9.83793C15.1668 9.83793 15.9559 9.04331 15.9559 8.08163C15.9559 7.29743 15.4209 6.65597 14.7072 6.43514C14.7155 6.36792 14.7484 6.31279 14.7484 6.24296C14.7484 5.28145 13.9662 4.48682 13.0059 4.48682H13.0059ZM13.0059 5.36487C13.489 5.36487 13.8702 5.75398 13.8702 6.24292C13.8702 6.36466 13.8438 6.48074 13.7948 6.59283C13.7342 6.72928 13.7469 6.88715 13.8288 7.01194C13.9106 7.13675 14.0502 7.21147 14.1996 7.21025H14.2064C14.6896 7.21025 15.0776 7.59247 15.0776 8.0816C15.0776 8.57057 14.6896 8.95965 14.2064 8.95965C13.8443 8.95965 13.5429 8.73883 13.4106 8.42462C13.342 8.26169 13.1826 8.15571 13.0059 8.15571C12.829 8.15571 12.6696 8.26168 12.601 8.42462C12.4688 8.73885 12.1675 8.95965 11.8053 8.95965C11.322 8.95965 10.934 8.57054 10.934 8.0816C10.934 7.59247 11.322 7.21025 11.8053 7.21025C11.9545 7.21148 12.0941 7.13675 12.176 7.01194C12.2578 6.88714 12.2707 6.72926 12.21 6.59283C12.161 6.48074 12.1345 6.36466 12.1345 6.24292C12.1345 5.75395 12.5226 5.36487 13.0059 5.36487H13.0059ZM16.1822 12.7466C15.8423 12.7466 15.5716 13.0226 15.5716 13.3641C15.5716 13.7056 15.8424 13.9815 16.1822 13.9815C16.5219 13.9815 16.7996 13.7056 16.7996 13.3641C16.7996 13.0226 16.522 12.7466 16.1822 12.7466Z" fill="#333"/>
</svg>
