<svg width="20" height="20" viewBox="0 0 20 20" fill="none" xmlns="http://www.w3.org/2000/svg">
<path d="M9.99881 0C15.5217 0 20 4.47829 20 9.99881C20 15.5217 15.5217 20 9.99881 20C4.47829 20 0 15.5217 0 9.99881C0 4.47829 4.47829 0 9.99881 0ZM10.2153 6.55324L13.5348 8.96609L16.1523 7.78822L17.4039 3.93575C17.4039 3.93813 15.8429 2.00357 13.4801 1.08269L10.2153 3.45509V6.55324ZM18.0583 15.1672C18.9625 13.7585 19.4598 12.1666 19.5526 10.5532L16.3022 8.19036L13.6847 9.36823L12.4093 13.2897L14.0083 15.1672H18.0583ZM12.0714 13.5515H7.92861L6.32957 15.4289L7.57406 19.2576C9.16359 19.674 10.8364 19.674 12.4259 19.2576L13.6704 15.4289L12.0714 13.5515ZM1.94408 15.1695H5.99167L7.59072 13.2897L6.31529 9.36823L3.6978 8.19036L0.447353 10.5532C0.537775 12.1666 1.03748 13.7609 1.94408 15.1695ZM6.4652 8.96609L9.78465 6.55324V3.45509L6.51993 1.08269C4.15705 2.00357 2.59607 3.93575 2.59607 3.93575L3.84771 7.78822L6.4652 8.96609Z" fill="#333333"/>
</svg>
